<svg width="14" height="14" viewBox="0 0 14 14" fill="none" xmlns="http://www.w3.org/2000/svg">
<path d="M6.9935 0.333374C3.3135 0.333374 0.333496 3.32004 0.333496 7.00004C0.333496 10.68 3.3135 13.6667 6.9935 13.6667C10.6802 13.6667 13.6668 10.68 13.6668 7.00004C13.6668 3.32004 10.6802 0.333374 6.9935 0.333374ZM7.00016 12.3334C4.0535 12.3334 1.66683 9.94671 1.66683 7.00004C1.66683 4.05337 4.0535 1.66671 7.00016 1.66671C9.94683 1.66671 12.3335 4.05337 12.3335 7.00004C12.3335 9.94671 9.94683 12.3334 7.00016 12.3334ZM6.8535 3.66671H6.8135C6.54683 3.66671 6.3335 3.88004 6.3335 4.14671V7.29337C6.3335 7.52671 6.4535 7.74671 6.66016 7.86671L9.42683 9.52671C9.6535 9.66004 9.94683 9.59337 10.0802 9.36671C10.2202 9.14004 10.1468 8.84004 9.9135 8.70671L7.3335 7.17337V4.14671C7.3335 3.88004 7.12016 3.66671 6.8535 3.66671Z" fill="white"/>
</svg>
