<svg width="14" height="11" viewBox="0 0 14 11" fill="none" xmlns="http://www.w3.org/2000/svg">
<path d="M12.3335 0.166748H1.66683C0.933496 0.166748 0.333496 0.766748 0.333496 1.50008V9.50008C0.333496 10.2334 0.933496 10.8334 1.66683 10.8334H12.3335C13.0668 10.8334 13.6668 10.2334 13.6668 9.50008V1.50008C13.6668 0.766748 13.0668 0.166748 12.3335 0.166748ZM12.0668 3.00008L7.70683 5.72675C7.2735 6.00008 6.72683 6.00008 6.2935 5.72675L1.9335 3.00008C1.76683 2.89341 1.66683 2.71341 1.66683 2.52008C1.66683 2.07341 2.1535 1.80675 2.5335 2.04008L7.00016 4.83341L11.4668 2.04008C11.8468 1.80675 12.3335 2.07341 12.3335 2.52008C12.3335 2.71341 12.2335 2.89341 12.0668 3.00008Z" fill="#FAAF4C"/>
</svg>
