<svg width="16" height="16" viewBox="0 0 16 16" fill="none" xmlns="http://www.w3.org/2000/svg">
<path d="M5.09634 8.13325L2.28 5.48155C1.17127 6.61956 0.751118 7.75963 0.743824 7.78298L0.666504 8.00001L0.743094 8.21704C0.759142 8.26305 2.43246 12.8075 8.0002 12.8075C8.67784 12.8075 9.29494 12.7375 9.86171 12.62L7.85869 10.7341C7.13749 10.7008 6.45523 10.4161 5.94465 9.93539C5.43407 9.45466 5.13169 8.81229 5.09634 8.13325ZM8.0002 3.19248C6.64711 3.19248 5.53837 3.46995 4.61418 3.8779L1.91164 1.33334L0.880227 2.30446L14.01 14.6667L15.0414 13.6956L12.6357 11.4305C14.56 10.0892 15.2464 8.24588 15.2566 8.21704L15.3332 8.00001L15.2566 7.78298C15.2405 7.73697 13.5679 3.19248 8.0002 3.19248ZM9.3905 8.375C9.5269 7.91004 9.41092 7.38671 9.03162 7.02889C8.65231 6.67107 8.09576 6.56256 7.60193 6.69099L6.50195 5.65531C6.95271 5.39432 7.47103 5.25509 8.0002 5.25285C9.60933 5.25285 10.9179 6.48495 10.9179 8.00001C10.9158 8.49815 10.7676 8.98606 10.4897 9.40999L9.3905 8.375Z" fill="white"/>
</svg>
