<svg width="21" height="20" viewBox="0 0 21 20" fill="none" xmlns="http://www.w3.org/2000/svg">
<g clip-path="url(#clip0_181_3250)">
<path d="M20.4996 10.232C20.4996 9.5522 20.4434 8.86875 20.3234 8.2H10.7002V12.0508H16.211C15.9823 13.2928 15.2475 14.3914 14.1716 15.0896V17.5882H17.4593C19.39 15.8465 20.4996 13.2744 20.4996 10.232Z" fill="#4285F4"/>
<path d="M10.6982 19.9963C13.4498 19.9963 15.7704 19.1107 17.4611 17.5822L14.1734 15.0835C13.2587 15.6935 12.0778 16.0389 10.702 16.0389C8.04029 16.0389 5.78349 14.2788 4.97374 11.9125H1.58105V14.4883C3.31301 17.8651 6.84066 19.9963 10.6982 19.9963Z" fill="#34A853"/>
<path d="M4.97423 11.9171C4.54686 10.6751 4.54686 9.33025 4.97423 8.08829V5.5125H1.58529C0.138238 8.33815 0.138238 11.6672 1.58529 14.4928L4.97423 11.9171Z" fill="#FBBC04"/>
<path d="M10.6982 3.95805C12.1527 3.936 13.5586 4.47247 14.612 5.45722L17.5248 2.60218C15.6804 0.904587 13.2324 -0.0287217 10.6982 0.000673888C6.84066 0.000673888 3.31301 2.13185 1.58105 5.51234L4.97 8.08813C5.77599 5.71811 8.03654 3.95805 10.6982 3.95805Z" fill="#EA4335"/>
</g>
<defs>
<clipPath id="clip0_181_3250">
<rect width="20" height="20" fill="white" transform="translate(0.5)"/>
</clipPath>
</defs>
</svg>
