<svg width="218" height="126" viewBox="0 0 218 126" fill="none" xmlns="http://www.w3.org/2000/svg">
<path d="M1.15165 66.0645C2.19866 64.4356 3.67388 63.6218 5.57731 63.6218C6.33 63.6303 7.2214 63.687 8.25152 63.7909L10.8341 64.0891L12.9365 64.3354C13.7592 64.4393 14.4986 64.4875 15.156 64.4779C15.7265 64.4863 16.2898 64.3137 16.8435 63.9587L17.0775 64.2183L16.5588 64.8546C16.2392 65.2265 15.8882 65.5477 15.507 65.8157L14.507 66.452V79.3015L14.805 79.0153C15.2633 78.5734 15.653 78.1194 15.9726 77.6509L16.3622 77.0533L16.6867 77.3129L16.4008 78.0796C15.5782 80.1926 14.3321 81.7695 12.6627 82.8091C11.9619 83.2594 11.2743 83.5842 10.5988 83.7835C9.86304 84.0093 9.05849 84.1216 8.18518 84.1216C6.02241 84.1216 4.20944 83.3935 2.74628 81.9385C1.23246 80.4232 0.483392 78.612 0.500279 76.5075C0.517166 74.793 1.05032 73.0434 2.09733 71.2588C2.61601 70.3231 3.31321 69.4271 4.18652 68.5699L5.21182 67.6607L5.66657 67.9203L4.97902 68.7776C3.8717 70.3025 3.31321 72.0219 3.30477 73.9357C3.30477 75.8676 3.85843 77.5048 4.96575 78.8475C6.16836 80.3024 7.70509 81.0257 9.57354 81.0173C10.7412 81.0354 11.8799 80.7444 12.9872 80.1467L13.7399 79.6915V66.7793L13.0523 66.9217C12.723 66.9737 12.3165 67.0002 11.8328 67.0002C11.2273 67.0087 10.6218 66.9869 10.0162 66.935C9.32386 66.8916 8.40229 66.7962 7.25155 66.6489L4.94162 66.376C4.30956 66.3156 3.73419 66.2806 3.21551 66.2721C2.37597 66.289 1.76562 66.4581 1.38566 66.7793L0.905571 67.2598L0.542494 67.1173L1.15165 66.0645ZM7.01875 70.014L11.1718 67.6619V74.665L11.1453 75.6659C11.1284 76.0559 11.0753 76.4157 10.9897 76.7442C10.7122 77.913 9.86425 78.8185 8.44572 79.4597L7.7835 79.7193L7.52416 79.5116L7.8221 79.1349C7.95238 78.9187 8.02474 78.6978 8.04284 78.472L8.06938 77.2247V70.3774L7.01754 70.8193V70.014H7.01875Z" fill="white"/>
<path d="M23.6971 81.4215C23.3943 81.2223 23.0565 81.0315 22.685 80.8504L22.0879 80.5775V73.6916L23.8659 72.5349L24.2555 72.8597C24.498 73.042 24.7658 73.1893 25.0601 73.3016L25.709 73.496V82.6821L25.6958 82.7026C26.5148 82.5686 28.8392 83.9511 29.1432 84.0839C29.1914 84.0984 29.2409 84.1105 29.2891 84.125C29.0684 83.8726 28.9309 83.5611 28.8911 83.2278C28.8308 82.7159 28.7874 82.0301 28.7584 81.8514L28.6679 80.9941L28.6293 80.202V72.8089L28.9019 72.6145C29.2481 72.3199 29.499 71.8092 29.6546 71.0811L29.7198 70.743L29.6546 70.7044L29.3036 70.964C28.8971 71.2151 28.4496 71.2719 27.9599 71.133C27.4714 70.9942 27.0926 70.7298 26.8248 70.341L26.4219 69.6781L22.0867 72.8355V68.3137C22.0952 67.3526 22.1905 66.3697 22.3726 65.364L22.5548 64.5586L22.8274 63.7146L22.2689 64.13L21.2955 64.7144C20.8371 64.9921 20.5126 65.1647 20.322 65.2335C20.0542 65.3458 19.708 65.4243 19.2835 65.4678L18.6212 65.533L18.9324 66.1174C19.0193 66.3335 19.0712 66.5847 19.088 66.8708L19.1266 68.0662L19.1652 68.9621V80.8371L18.386 81.3177C17.9445 81.5954 17.6068 81.8635 17.374 82.123L16.9844 82.6422L17.2305 82.8246L17.5549 82.7207C18.5416 82.4008 19.5705 82.6423 20.6441 83.4488L21.4619 84.125L22.2146 83.4102C22.5523 83.1156 22.9323 82.804 23.3569 82.4744L24.2519 81.8248L23.6971 81.4215Z" fill="white"/>
<path d="M31.018 82.0459C31.1386 81.9336 31.3774 81.7513 31.732 81.5001L32.3026 81.0848V73.8607V73.2896L32.2507 72.7306C32.1723 72.3237 32.0083 71.9421 31.7574 71.5871L33.0685 71.5087C33.925 71.4398 34.7597 71.2406 35.5739 70.911C36.136 70.7033 36.686 70.4437 37.2228 70.131L38.002 69.6758L38.5605 70.8446C39.0707 71.9011 39.4821 72.6895 39.7933 73.2087L40.5725 74.3908L38.9634 75.3266C37.9514 75.9242 37.1372 76.4181 36.5232 76.8081L35.2253 77.6653V80.3036L36.2892 80.4074C36.7994 80.5028 37.3229 80.6622 37.8597 80.888L38.885 81.3685L39.6763 80.5233L40.1829 80.9387L38.7161 82.6411L37.5087 84.1227L36.4448 83.5769C35.8308 83.2738 35.2458 83.0444 34.6921 82.8887C34.2675 82.7583 33.8007 82.6544 33.2905 82.5772L32.2652 82.46C31.7803 82.46 31.4606 82.4733 31.305 82.4987L30.7731 82.6158L30.6826 82.4335L31.018 82.0459ZM35.2241 72.0025V76.6668L37.6257 75.1201L35.7693 71.7682L35.2241 72.0025Z" fill="white"/>
<path d="M57.1464 66.4799C58.2706 65.8822 59.3659 65.2676 60.4298 64.6349L62.6625 63.2971L63.1293 63.8296C64.1076 64.8426 65.0846 65.1892 66.0629 64.8692L66.4657 64.7267L66.6081 64.9344L66.2317 65.3497C65.5743 65.9909 64.8216 66.4195 63.9737 66.6357L63.4284 66.7661V80.9026L64.0255 80.6297C64.882 80.1709 65.6865 79.5684 66.4392 78.8234L66.9458 78.291L67.2184 78.5385L66.8035 79.24C65.8433 80.7553 64.584 81.9724 63.0268 82.8913C61.6589 83.7051 60.0582 84.1168 58.2248 84.1253C57.5843 84.1337 57.0137 84.0818 56.5119 83.9695C55.7327 83.8137 54.9547 83.5191 54.1755 83.0857C53.4481 82.6957 52.7871 82.2199 52.19 81.6561C51.4976 81.0234 50.9174 80.3182 50.4506 79.5382C50.026 78.8452 49.7064 78.1086 49.4904 77.3298C49.2395 76.481 49.1189 75.5718 49.1274 74.6011C49.1443 72.4615 49.8149 70.4246 51.1394 68.4879C52.4638 66.5523 54.0983 65.1119 56.0463 64.1677L57.1367 63.7004L57.3708 64.0771C55.9776 64.9006 54.8606 65.9788 54.0223 67.3118C53.0006 68.9141 52.4903 70.8158 52.4903 73.0157C52.4819 73.7172 52.5591 74.4236 52.7244 75.1335C52.8884 75.922 53.1357 76.6368 53.4638 77.2779C54.1127 78.6025 55.0862 79.6505 56.3841 80.4221C57.5782 81.132 58.9714 81.4919 60.5637 81.5003C61.1258 81.5003 61.6058 81.4568 62.0039 81.3699L62.6661 81.1876V66.7661L61.9786 66.5065C61.5636 66.3507 61.2126 66.1648 60.9267 65.9474L60.3296 65.4403L60.0956 65.5574V75.1722L60.057 76.1466C60.0305 76.5281 59.9786 76.8396 59.9014 77.0823C59.8146 77.4023 59.6722 77.7017 59.4732 77.9782C58.9883 78.6882 58.3261 79.1917 57.4878 79.4851L56.6832 79.7447L56.4492 79.5889L56.7085 79.2255C56.8038 79.0697 56.8641 78.8959 56.8907 78.7063L56.9691 77.9263L56.9956 77.0171V67.3372L55.3467 68.1691L55.0874 67.5714L57.1464 66.4799Z" fill="white"/>
<path d="M67.0504 71.976L67.9587 71.1573C68.2446 70.8796 68.5389 70.5427 68.8416 70.1443L69.1927 69.677L69.8682 70.0537C70.5436 70.4787 70.932 71.1102 71.0358 71.9506L71.0744 72.8731V80.3048L71.6582 80.4738C72.0997 80.6127 72.4808 80.7938 72.8005 81.0196L73.1768 81.319L74.6955 80.2275V73.2244L74.02 72.4577L73.3578 72.925L73.0719 72.4577L73.5266 72.1196C74.0115 71.7646 74.4132 71.4435 74.7341 71.1585C75.0537 70.8724 75.4096 70.5343 75.798 70.1455L76.2527 69.6782L76.5772 70.1974C76.8112 70.5874 77.1309 70.9038 77.5374 71.1464C78.0223 71.4326 78.4589 71.4761 78.8485 71.2768L79.0946 71.1078L79.2369 71.2249L79.0427 71.6536C78.9209 71.8794 78.7786 72.0979 78.6145 72.3092C78.4505 72.5217 78.2683 72.7052 78.0693 72.861L77.6146 73.2244V78.6289V79.5381C77.6411 80.1877 77.74 80.6513 77.9125 80.929C78.1284 81.2756 78.5446 81.4663 79.1585 81.5001L79.7424 81.5134L79.7942 81.6559L77.3275 84.1251C75.7702 83.6059 74.8921 82.6001 74.6931 81.1113L73.4084 82.0073C72.8379 82.4323 72.2927 82.8561 71.7728 83.2811L70.7994 84.1263L70.3193 83.6192C69.1336 82.4323 67.9912 81.9867 66.8924 82.2814L66.5944 82.3719L66.5293 82.2294L66.9189 81.7742C67.1264 81.5315 67.3604 81.3106 67.6197 81.1113L68.1517 80.7081V74.3413V73.8088C68.048 73.1073 67.6716 72.7173 67.0227 72.64L66.6198 72.6135L66.5293 72.4312L67.0504 71.976Z" fill="white"/>
<path d="M81.2234 70.4305L81.9761 70.4437V69.677C81.9592 69.0009 81.777 68.3911 81.4309 67.8454L82.2619 67.6896C83.2486 67.4819 84.0665 67.1354 84.7154 66.65L85.4428 66.1042L85.1183 67.1692C85.0146 67.5326 84.9542 67.9142 84.9362 68.3126L84.8976 69.3257V70.4425C85.3825 70.451 85.8107 70.4293 86.1822 70.3773C86.4247 70.3508 86.6321 70.2868 86.8058 70.1829L87.1568 69.8714L87.105 70.5343L87.0784 71.4833L87 72.3153V72.9129L86.6623 72.6268C86.3764 72.4626 85.7878 72.3672 84.8976 72.3406V80.5777L85.7407 80.9158C85.9397 81.0112 86.2341 81.1838 86.6237 81.435L87.0652 81.0196L87.5199 81.435L84.742 84.1251L84.2872 83.7351C83.6383 83.1978 83.0798 82.8561 82.613 82.7088C82.198 82.57 81.8337 82.5011 81.5225 82.5011L80.9254 82.553L80.5226 82.6183L80.3537 82.4878L81.1715 81.6825L81.9761 81.0329V72.3406L81.496 72.3672C80.9339 72.4106 80.449 72.593 80.0425 72.9129L80.0944 72.0291L80.1209 71.301L80.1076 70.6381L80.0425 69.8714C80.4056 70.2095 80.8 70.3954 81.2234 70.4305Z" fill="white"/>
<path d="M89.1028 70.4305L89.8555 70.4437V69.677C89.8386 69.0009 89.6564 68.3911 89.3102 67.8454L90.1413 67.6896C91.128 67.4819 91.9459 67.1354 92.5948 66.65L93.3222 66.1042L92.9977 67.1692C92.894 67.5326 92.8337 67.9142 92.8156 68.3126L92.777 69.3257V70.4425C93.2619 70.451 93.6901 70.4293 94.0616 70.3773C94.304 70.3508 94.5115 70.2868 94.6852 70.1829L95.0362 69.8714L94.9844 70.5343L94.9578 71.4833L94.8794 72.3153V72.9129L94.5417 72.6268C94.2558 72.4626 93.6672 72.3672 92.777 72.3406V80.5777L93.6201 80.9158C93.8192 81.0112 94.1135 81.1838 94.5031 81.435L94.9446 81.0196L95.3993 81.435L92.6214 84.1251L92.1666 83.7351C91.5177 83.1978 90.9592 82.8561 90.4924 82.7088C90.0774 82.57 89.7131 82.5011 89.4019 82.5011L88.8048 82.553L88.402 82.6183L88.2331 82.4878L89.0509 81.6825L89.8555 81.0329V72.3406L89.3754 72.3672C88.8133 72.4106 88.3284 72.593 87.9219 72.9129L87.9737 72.0291L88.0003 71.301L87.987 70.6381L87.9219 69.8714C88.285 70.2095 88.6794 70.3954 89.1028 70.4305Z" fill="white"/>
<path d="M96.7479 71.7164C97.1809 71.4049 97.5959 71.0619 97.9939 70.6901L99.0325 69.677C99.9323 71.1066 100.785 71.5606 101.59 71.0414L101.914 70.8205L102.044 70.9629L101.889 71.4181C101.794 71.6693 101.681 71.8987 101.551 72.1064C101.309 72.5048 100.932 72.826 100.422 73.0675V79.1481L100.435 80.1611C100.444 81.0788 100.915 81.5859 101.85 81.6813L102.499 81.7332L102.603 81.9022L101.409 82.9672L100.189 84.1239L99.5656 83.9549C98.2496 83.548 97.5669 82.7776 97.515 81.6426L97.5018 80.3434V73.2232L96.7358 72.5217L96.1906 72.8079L95.8794 72.3273L96.7479 71.7164ZM97.8516 66.6621L99.2013 65.7263C99.8419 66.644 100.578 66.9651 101.408 66.6874L101.693 66.5836H101.836L101.59 67.1028C101.451 67.3805 101.276 67.6244 101.064 67.8369C100.851 68.0494 100.611 68.2197 100.344 68.3501C99.9456 68.5662 99.591 68.67 99.2798 68.6616C98.7948 68.6616 98.2545 68.4672 97.6574 68.0772L97.3196 67.8429L96.813 67.9601L96.5404 67.4928L97.8516 66.6621Z" fill="white"/>
<path d="M103.823 71.8854L104.666 71.0933C104.943 70.8156 105.193 70.5306 105.418 70.236L105.833 69.677L106.404 69.9233C107.113 70.3387 107.529 71.0197 107.65 71.9627L107.702 72.768L112.011 69.6758L112.362 70.2867C112.639 70.7118 113.014 70.9967 113.491 71.144C114.018 71.2998 114.486 71.2394 114.892 70.9617L115.203 70.7274H115.359L115.269 71.2865C115.191 71.633 114.987 72.0146 114.658 72.4299L114.243 72.8851V79.6673C114.226 80.7153 114.598 81.2345 115.36 81.226L115.711 81.2128L115.867 81.3685L113.478 84.1359L112.803 83.9669C111.842 83.6469 111.353 82.8186 111.336 81.4856L111.323 80.3168V73.4961L110.726 73.327C110.405 73.2401 110.146 73.1061 109.947 72.9238L109.465 72.4432L107.701 73.5601V80.5897L108.246 80.8626C108.627 81.0703 108.972 81.2828 109.284 81.4989L109.882 81.9662L108.739 82.85L107.286 84.1359L106.728 83.6687L106.014 83.1229C105.227 82.5772 104.482 82.3828 103.782 82.5385L103.419 82.6291L103.159 82.4987L103.51 82.07L104.198 81.342L104.782 80.7962V74.287C104.782 73.4732 104.501 72.9491 103.938 72.7149L103.159 72.442L103.823 71.8854Z" fill="white"/>
<path d="M117.048 81.6945L117.788 81.0703V73.6253L117.762 72.6642C117.735 72.3865 117.675 72.1402 117.58 71.924L117.242 71.3783L117.929 71.4821C118.215 71.5256 118.523 71.5425 118.851 71.534C119.301 71.5425 119.735 71.5123 120.155 71.4435C120.575 71.3746 121.027 71.266 121.511 71.1187C121.917 70.9979 122.385 70.8373 122.912 70.6381C123.397 70.4654 123.812 70.2916 124.158 70.1189L125.028 69.677L125.56 70.3399C126.269 71.0933 127.204 71.3626 128.363 71.1452L128.87 71.0281V71.1187L128.701 71.3783C128.442 71.7332 128.112 72.1063 127.714 72.4951L127.248 72.9371V78.5371L127.261 79.5767C127.304 79.9921 127.477 80.4726 127.78 81.0184L128.377 82.1099C128.541 82.4299 128.628 82.7426 128.636 83.0456C128.619 83.7387 128.164 84.4269 127.273 85.1116L124.301 87.489L122.744 88.9572C121.956 88.2726 121.25 87.8404 120.628 87.658C120.238 87.5445 119.837 87.489 119.42 87.489C118.788 87.489 118.261 87.6013 117.837 87.8271L117.213 88.2424L116.954 88.1253C117.248 87.7003 117.507 87.3767 117.733 87.1509C118.01 86.8478 118.373 86.5532 118.823 86.2671C119.23 86.0075 119.65 85.8082 120.083 85.6694C120.619 85.4967 121.203 85.4098 121.835 85.4098C122.415 85.4098 122.943 85.4786 123.419 85.6175C123.739 85.7129 124.155 85.8686 124.665 86.0847L125.028 85.7865C125.487 85.3796 125.716 84.9111 125.716 84.3835C125.724 84.0889 125.552 83.6469 125.197 83.0577C124.963 82.6858 124.795 82.3647 124.69 82.0966L124.431 81.3033L123.406 81.9529C122.912 82.2826 122.402 82.6677 121.874 83.1096L120.706 84.1227L120.291 83.6035C120.057 83.3608 119.8 83.1447 119.519 82.9539C119.238 82.7631 118.939 82.6206 118.623 82.5253C118.307 82.4299 117.991 82.3804 117.676 82.3755C117.36 82.3707 117.072 82.4081 116.813 82.4854L116.281 82.6798L116.164 82.5627L117.048 81.6945ZM120.709 72.1969V80.5777C121.453 80.7419 122.159 81.0027 122.824 81.3577L124.33 80.3579V73.2244L123.602 72.9262C123.231 72.762 122.902 72.5277 122.616 72.2247L122.201 71.7308L120.709 72.1969Z" fill="white"/>
<path d="M139.958 79.1094C139.879 79.5248 139.811 79.7976 139.75 79.928L139.464 80.2661L139.75 80.4219L140.724 79.928C141.727 79.3569 142.376 78.8027 142.67 78.2654C142.921 77.8501 143.06 77.361 143.085 76.7972L143.112 75.667V69.2616L143.138 68.6639C143.155 68.3609 143.247 68.088 143.411 67.8453L143.658 67.5205L143.451 67.3647L142.62 67.7547C141.703 68.2317 141.041 68.7207 140.633 69.223C140.209 69.7687 140.001 70.5439 140.01 71.5485V71.9252H139.529C138.941 71.9337 138.482 72.1462 138.153 72.5615C137.824 72.9769 137.66 73.4707 137.66 74.043C137.643 74.9184 137.967 75.5113 138.633 75.8228L138.841 75.9133L138.931 75.498C139.043 75.1949 139.251 75.0428 139.555 75.0428H140.008V78.525L139.958 79.1094Z" fill="white"/>
<path d="M152.872 79.9015L152.859 78.8233V67.2597C152.859 66.7405 152.742 66.1984 152.509 65.6357C152.293 65.1165 151.921 64.6831 151.394 64.3365C150.969 64.0588 150.477 63.8777 149.913 63.7908C149.256 63.6869 148.485 63.635 147.604 63.635C146.903 63.635 146.245 63.6567 145.63 63.7002L143.566 63.8427L141.802 63.9465L140.166 64.0117C139.525 64.0117 139.015 63.9852 138.634 63.9333L137.518 63.7256L137.428 64.2448C137.419 65.8555 138.661 66.7441 141.153 66.9083L143.23 66.947L144.476 66.9204V79.718L143.84 79.8218C142.014 80.1514 140.478 80.9085 139.232 82.0954C138.791 82.5204 138.48 82.8754 138.297 83.1603L137.948 83.8232L138.246 84.1227C139.249 83.2135 140.565 82.7667 142.191 82.7848C143.8 82.7848 145.362 83.2316 146.877 84.1227L147.513 83.4598C148.336 82.7064 149.373 82.1304 150.629 81.7319C151.147 81.5677 151.711 81.4506 152.316 81.3806L153.393 81.2635C153.054 80.859 152.881 80.4038 152.872 79.9015ZM149.758 81.2405H149.511L148.835 80.8771C147.753 80.3229 146.893 79.9764 146.253 79.8375L145.241 79.6685V66.8709C146.167 66.8021 146.997 66.7623 147.733 66.7538C148.944 66.7454 149.611 67.1957 149.731 68.1049L149.758 68.5722V81.2405Z" fill="white"/>
<path d="M155.339 71.7164C155.772 71.4049 156.187 71.0619 156.585 70.6901L157.624 69.677C158.524 71.1066 159.376 71.5606 160.181 71.0414L160.505 70.8205L160.636 70.9629L160.48 71.4181C160.385 71.6693 160.273 71.8987 160.142 72.1064C159.9 72.5048 159.524 72.826 159.013 73.0675V79.1481L159.027 80.1611C159.035 81.0788 159.507 81.5859 160.442 81.6813L161.09 81.7332L161.194 81.9022L160 82.9672L158.781 84.1239L158.157 83.9549C156.842 83.548 156.158 82.7776 156.106 81.6426L156.093 80.3434V73.2232L155.327 72.5217L154.782 72.8079L154.471 72.3273L155.339 71.7164ZM156.442 66.6621L157.791 65.7263C158.432 66.644 159.168 66.9651 159.998 66.6874L160.284 66.5836H160.427L160.18 67.1028C160.041 67.3805 159.866 67.6244 159.654 67.8369C159.442 68.0494 159.202 68.2197 158.934 68.3501C158.536 68.5662 158.181 68.67 157.87 68.6616C157.385 68.6616 156.845 68.4672 156.247 68.0772L155.91 67.8429L155.403 67.9601L155.131 67.4928L156.442 66.6621Z" fill="white"/>
<path d="M161.739 83.2412C161.981 82.5397 162.456 81.6993 163.167 80.7201L164.114 79.5381L165.204 78.2642H162.634L162.841 77.8875C162.919 77.6967 162.993 77.4202 163.062 77.0556L163.179 76.1331V72.6895C163.179 72.2826 163.07 71.8926 162.854 71.5207L162.634 71.1826L163.685 71.3251L164.555 71.3638C166.087 71.3807 167.32 71.0003 168.255 70.2203L168.813 69.6746L169.189 69.9861C169.708 70.393 170.232 70.597 170.76 70.597C171.513 70.6055 172.066 70.2988 172.421 69.6746H173.005C172.685 70.3507 172.438 70.8482 172.265 71.1681C172.031 71.5835 171.747 72.0303 171.409 72.506C171.046 73.0252 170.63 73.5589 170.163 74.1046L169.112 75.3133H172.773L172.462 75.7684C172.341 75.9846 172.271 76.2756 172.254 76.639L172.228 77.3924V80.3543L172.254 81.1077C172.281 81.4542 172.345 81.7573 172.449 82.0169L172.773 82.6931L172.228 82.4335C171.587 82.2427 170.692 82.2342 169.54 82.4069C168.624 82.5542 167.818 82.9225 167.127 83.5117L166.53 84.1227L166.167 83.5769C165.638 82.8669 164.959 82.5156 164.129 82.524C163.039 82.5071 162.365 83.0396 162.104 84.1227H161.494L161.739 83.2412ZM164.087 80.8505L164.671 80.5511C165.025 80.3953 165.419 80.3132 165.852 80.3048C166.509 80.3048 167.202 80.6127 167.929 81.2272L168.578 81.8116L169.305 81.5641V77.0821H167.489L166.45 78.1737C165.602 79.0575 165.053 79.6467 164.802 79.9401L164.087 80.8505ZM166.099 71.9626V76.4965H167.021L168.253 75.2106C168.911 74.5176 169.417 73.9464 169.772 73.4961L170.694 72.2355C170.01 72.6424 169.461 72.8501 169.045 72.8598C168.483 72.8598 167.924 72.6134 167.37 72.1196L166.994 71.7562L166.099 71.9626Z" fill="white"/>
<path d="M175.756 70.4305L176.509 70.4437V69.677C176.492 69.0009 176.31 68.3911 175.963 67.8454L176.794 67.6896C177.781 67.4819 178.599 67.1354 179.248 66.65L179.975 66.1042L179.651 67.1692C179.547 67.5326 179.487 67.9142 179.469 68.3126L179.43 69.3257V70.4425C179.915 70.451 180.343 70.4293 180.715 70.3773C180.957 70.3508 181.165 70.2868 181.338 70.1829L181.688 69.8714L181.636 70.5343L181.61 71.4833L181.531 72.3153V72.9129L181.194 72.6268C180.908 72.4626 180.319 72.3672 179.429 72.3406V80.5777L180.273 80.9158C180.472 81.0112 180.767 81.1838 181.156 81.435L181.598 81.0196L182.051 81.435L179.273 84.1251L178.82 83.7351C178.171 83.1978 177.612 82.8561 177.145 82.7088C176.73 82.57 176.366 82.5011 176.055 82.5011L175.458 82.553L175.056 82.6183L174.887 82.4878L175.705 81.6825L176.51 81.0329V72.3406L176.03 72.3672C175.468 72.4106 174.983 72.593 174.576 72.9129L174.628 72.0291L174.655 71.301L174.641 70.6381L174.576 69.8714C174.938 70.2095 175.332 70.3954 175.756 70.4305Z" fill="white"/>
<path d="M182.739 82.1751C182.93 81.8974 183.167 81.6559 183.453 81.447L184.037 81.057V74.8979C184.037 74.3606 183.998 73.9537 183.92 73.6772C183.808 73.2872 183.522 73.0191 183.063 72.8718L182.415 72.7028L183.025 72.1317C183.354 71.8286 183.644 71.5256 183.895 71.2225C184.145 70.9194 184.366 70.62 184.557 70.3266L184.946 69.677L185.544 70.067C186.167 70.5439 186.599 71.3275 186.841 72.4191L186.958 72.9902L187.905 71.9892L188.802 70.8325L189.658 69.6758L189.852 70.2083C190.302 71.2394 190.956 71.5678 191.812 71.1959L192.241 70.975L192.202 71.8069C192.133 72.3611 191.877 72.8549 191.436 73.2884C191.021 73.6869 190.514 73.8909 189.917 73.8994C189.563 73.9078 189.26 73.839 189.009 73.6917L188.399 73.2763L188.022 72.9902L186.958 74.1469V80.5777C187.686 80.8034 188.317 81.0715 188.853 81.383L189.568 80.8759L190.061 81.383C189.325 81.9638 188.785 82.4069 188.438 82.7148C188.092 83.0227 187.599 83.4924 186.958 84.1239C185.358 82.7728 184.06 82.3055 183.065 82.7208L182.61 82.9285L182.416 82.7462L182.739 82.1751Z" fill="white"/>
<path d="M193.733 71.7164C194.166 71.4049 194.581 71.0619 194.98 70.6901L196.018 69.677C196.918 71.1066 197.771 71.5606 198.575 71.0414L198.9 70.8205L199.03 70.9629L198.874 71.4181C198.779 71.6693 198.667 71.8987 198.537 72.1064C198.294 72.5048 197.918 72.826 197.408 73.0675V79.1481L197.421 80.1611C197.429 81.0788 197.901 81.5859 198.836 81.6813L199.485 81.7332L199.589 81.9022L198.394 82.9672L197.174 84.1239L196.55 83.9549C195.235 83.548 194.551 82.7776 194.499 81.6426L194.486 80.3434V73.2232L193.72 72.5217L193.175 72.8079L192.864 72.3273L193.733 71.7164ZM194.836 66.6621L196.186 65.7263C196.826 66.644 197.562 66.9651 198.392 66.6874L198.678 66.5836H198.821L198.574 67.1028C198.435 67.3805 198.26 67.6244 198.048 67.8369C197.836 68.0494 197.596 68.2197 197.328 68.3501C196.93 68.5662 196.575 68.67 196.264 68.6616C195.779 68.6616 195.239 68.4672 194.642 68.0772L194.304 67.8429L193.797 67.9601L193.525 67.4928L194.836 66.6621Z" fill="white"/>
<path d="M200.768 82.1497C200.941 81.907 201.158 81.6776 201.417 81.4615L201.755 81.2019V73.9911L201.728 73.1206C201.685 72.6014 201.512 72.0677 201.21 71.522L202.17 71.5739C203.053 71.5654 203.935 71.3312 204.818 70.8724C205.224 70.6731 205.553 70.4522 205.804 70.2095L206.298 69.677L206.881 70.3918C207.176 70.7118 207.526 70.9508 207.932 71.1066C208.425 71.2974 208.845 71.3143 209.191 71.1585L209.62 70.9122L209.658 71.0945L209.359 71.6536C209.195 71.9482 209.013 72.2041 208.814 72.4203C208.337 72.9576 207.737 73.2256 207.009 73.2256C206.325 73.2425 205.728 72.966 205.218 72.3937L204.673 71.7695V80.5789L205.556 80.7093C205.971 80.8047 206.374 80.9387 206.763 81.1126L207.608 81.5412L208.542 80.5801L209.049 81.022L206.375 84.1275L204.96 83.3874C204.311 83.0577 203.728 82.8174 203.214 82.6665C202.699 82.5144 202.17 82.4395 201.625 82.4395C201.382 82.4395 201.21 82.4528 201.106 82.4782L200.613 82.6605L200.534 82.5301L200.768 82.1497Z" fill="white"/>
<path d="M211.205 70.4305L211.957 70.4437V69.677C211.94 69.0009 211.758 68.3911 211.412 67.8454L212.243 67.6896C213.23 67.4819 214.048 67.1354 214.697 66.65L215.424 66.1042L215.1 67.1692C214.996 67.5326 214.935 67.9142 214.917 68.3126L214.879 69.3257V70.4425C215.364 70.451 215.792 70.4293 216.163 70.3773C216.406 70.3508 216.613 70.2868 216.787 70.1829L217.137 69.8714L217.085 70.5343L217.058 71.4833L216.98 72.3153V72.9129L216.642 72.6268C216.356 72.4626 215.768 72.3672 214.878 72.3406V80.5777L215.722 80.9158C215.921 81.0112 216.215 81.1838 216.605 81.435L217.046 81.0196L217.5 81.435L214.722 84.1251L214.268 83.7351C213.619 83.1978 213.061 82.8561 212.594 82.7088C212.179 82.57 211.815 82.5011 211.504 82.5011L210.907 82.553L210.505 82.6183L210.336 82.4878L211.154 81.6825L211.958 81.0329V72.3406L211.478 72.3672C210.916 72.4106 210.431 72.593 210.025 72.9129L210.077 72.0291L210.103 71.301L210.09 70.6381L210.025 69.8714C210.386 70.2095 210.78 70.3954 211.205 70.4305Z" fill="white"/>
<path d="M60.1011 37.7356C60.3508 37.2273 60.7151 36.8059 61.1951 36.4726C61.3749 36.3471 61.5281 36.2541 61.6571 36.1913L62.0383 36.0416V33.7837H61.7693C61.4822 33.7921 61.3459 33.8899 61.3628 34.0783L61.3881 34.2159L61.4376 34.3536L61.3375 34.3282L61.0938 34.2473C60.7525 34.0843 60.586 33.7801 60.5944 33.3333C60.5944 33.0121 60.7018 32.738 60.9165 32.511C61.1312 32.284 61.4086 32.1657 61.7512 32.1573H62.0383V29.5987L61.8067 29.6108C61.2313 29.6603 60.8381 29.9429 60.6258 30.4548L60.545 30.6613H60.4195L60.3761 30.4608L60.3568 30.1674C60.3532 29.9127 60.3858 29.6832 60.4569 29.4792C60.4943 29.35 60.5571 29.2172 60.6439 29.0783C60.7525 28.8912 60.8839 28.7306 61.0371 28.5966C61.3701 28.2923 61.785 28.1377 62.2808 28.1341C62.7765 28.1341 63.2349 28.3297 63.6559 28.7221C63.8561 28.9141 64.0262 29.1097 64.1685 29.3102C64.3482 29.5601 64.5352 29.8607 64.7306 30.2109L65.1612 30.9933L65.511 31.6622L65.78 31.7117C65.9634 31.7455 66.201 31.76 66.4929 31.7552C66.7595 31.7552 66.9718 31.7431 67.1298 31.7178L67.4109 31.661V29.8849H67.1986C66.8608 29.8849 66.5677 29.8354 66.3168 29.7352L66.0358 29.6096L65.7113 29.7967L65.511 29.6096L66.0044 29.1532C66.2456 28.9202 66.5026 28.663 66.7728 28.3841L67.166 27.9651L67.441 28.1402C68.0285 28.4903 68.5326 28.5736 68.9536 28.3901L69.1792 28.2839L69.3046 28.3901L69.0791 28.7342C68.6786 29.2884 68.2974 29.6313 67.9356 29.7605L67.7788 29.804V38.1618L67.5291 38.0749C67.1202 37.8696 66.6751 37.3323 66.1914 36.4606C66.0454 36.1985 65.8597 35.8351 65.6353 35.3727L65.1419 34.3463L64.9296 34.2836C64.7837 34.251 64.5738 34.2196 64.2988 34.1894L63.7487 34.1459C63.2699 34.158 62.8947 34.2063 62.6233 34.2896L62.405 34.3645V36.0162L62.8742 36.0416C63.2663 36.0754 63.6969 36.2215 64.1673 36.4799L64.4616 36.6489L64.6993 36.405L64.9248 36.5547L63.7005 38.1618L63.3688 37.924C62.9273 37.6318 62.4339 37.476 61.8875 37.4543C61.2832 37.4337 60.7778 37.5436 60.3689 37.7851L60.1132 37.9481H60.001L60.1011 37.7356ZM62.4074 29.7026V33.9696L62.8694 33.8501C63.1529 33.7837 63.4424 33.7499 63.7379 33.7499C64.0213 33.7499 64.294 33.7837 64.5569 33.8501L64.932 33.9624L64.1384 32.2672L63.7632 31.5161C63.5919 31.1829 63.4158 30.8569 63.2325 30.5405C63.0069 30.1481 62.7705 29.8837 62.5196 29.746L62.4074 29.7026ZM65.7258 32.0486L66.1443 32.9928L66.5689 33.937C66.7318 34.2956 66.8789 34.5878 67.0128 34.8124L67.4133 35.4572V32.0534L67.2263 32.0909C67.0176 32.1331 66.8077 32.1512 66.5954 32.1464C66.4157 32.1464 66.2432 32.1343 66.0768 32.109L65.7258 32.0486Z" fill="white"/>
<path d="M68.9563 37.1596C69.0142 37.1053 69.1288 37.0184 69.3001 36.8976L69.5751 36.6972V33.2186V32.9433L69.5498 32.674C69.5124 32.4784 69.4328 32.2949 69.3122 32.1234L69.943 32.086C70.3556 32.0522 70.7572 31.9568 71.1493 31.7986C71.4207 31.6984 71.6848 31.5729 71.943 31.4231L72.3181 31.2046L72.5871 31.7685C72.8332 32.2768 73.031 32.6559 73.1805 32.9071L73.5557 33.477L72.7813 33.9273C72.294 34.2147 71.9019 34.4526 71.6064 34.6409L70.9816 35.0539V36.3241L71.4942 36.3736C71.7403 36.4195 71.9924 36.4967 72.2505 36.6054L72.7439 36.8372L73.1251 36.4303L73.3687 36.6308L72.6631 37.4506L72.0817 38.163L71.569 37.901C71.2735 37.7549 70.9924 37.6438 70.7259 37.5689C70.522 37.5062 70.2965 37.4567 70.0504 37.4192L69.557 37.3625C69.3242 37.3625 69.1698 37.3685 69.095 37.3818L68.8393 37.4373L68.7959 37.3504L68.9563 37.1596ZM70.9816 32.3239V34.5697L72.1372 33.8247L71.2433 32.2104L70.9816 32.3239Z" fill="white"/>
<path d="M74.1746 32.3359C74.3917 32.144 74.5618 31.9749 74.6872 31.8288L74.9816 31.4726L75.1818 31.2034L75.5195 31.4038C75.9031 31.6706 76.0961 32.115 76.1009 32.7368V33.1993V36.4521L76.4447 36.5402C76.5569 36.5825 76.6944 36.644 76.8573 36.7274L77.1383 36.8831L77.5822 36.5764V33.4987L77.5762 33.1679C77.5508 32.8008 77.3675 32.5798 77.0261 32.505L76.8006 32.4675V32.4241L77.0949 32.2055L77.5448 31.8361L78.0575 31.3676L78.2263 31.2046L78.5013 31.3543C78.7933 31.5547 78.9537 31.8819 78.9826 32.3371L78.9887 32.7875V35.596L79.0007 36.0089C79.0888 36.7563 79.4675 37.121 80.1382 37.1041L80.4699 37.0847V32.9119L80.2323 32.7187L80.0067 32.5243L79.8198 32.6124L79.6449 32.3746L80.3891 31.8554C80.5688 31.7177 80.8306 31.5016 81.1768 31.2046L81.2709 31.3796C81.5579 31.9097 81.9391 32.1053 82.4144 31.9677L82.6013 31.9182L82.658 31.993L82.5205 32.1802C82.412 32.3227 82.3058 32.4374 82.2021 32.5243L81.8776 32.7501V36.0089L81.8836 36.5595C81.88 36.8179 81.927 37.0268 82.0272 37.185L82.1393 37.3419L81.927 37.3166L81.6641 37.3105C81.3227 37.3238 80.9645 37.3963 80.5893 37.5291L79.7389 37.8672L78.9887 38.1606C78.5966 38.0483 78.2975 37.8792 78.0888 37.6535C77.9477 37.5122 77.8427 37.3721 77.7764 37.2345L77.6642 36.9725L76.8138 37.5665L76.0322 38.1606L75.7451 37.9167C75.1661 37.4204 74.6161 37.2284 74.095 37.3407L73.9141 37.3782V37.2973L74.2771 36.9411C74.3652 36.8698 74.5039 36.7684 74.6957 36.6344V33.6255V33.2946C74.6583 32.9988 74.4858 32.8068 74.177 32.7187L73.9141 32.6559V32.575L74.1746 32.3359Z" fill="white"/>
<path d="M132.945 29.8597C132.942 29.2427 133.147 28.773 133.564 28.4518C133.822 28.2441 134.13 28.1367 134.489 28.1331C135.33 28.1451 135.791 28.744 135.87 29.9285L135.89 30.2171L136.546 29.7788V28.1343H136.915V29.5107L137.727 28.942C137.956 28.7706 138.296 28.5013 138.746 28.1355L138.909 28.3419C139.026 28.5001 139.142 28.6353 139.255 28.7488C139.37 28.8611 139.496 28.9529 139.634 29.0241C139.905 29.1871 140.155 29.2185 140.384 29.1183L140.534 29.0495L140.583 29.1304L140.534 29.2185L140.371 29.4504L140.184 29.6761L140.072 29.7957V35.4126L140.046 36.0514C140.001 36.7142 139.734 37.2129 139.247 37.5462C138.943 37.755 138.382 37.9023 137.565 37.9905C137.178 38.0327 136.827 38.0883 136.516 38.1595C136.261 38.2139 136.043 38.3008 135.86 38.4228C135.588 38.6027 135.456 38.7862 135.459 38.9733C135.456 39.0651 135.494 39.1436 135.577 39.2076C135.661 39.2728 135.749 39.303 135.84 39.2981C136.002 39.2981 136.176 39.2547 136.359 39.1665L136.94 38.8731C137.227 38.7186 137.49 38.5954 137.728 38.5036C137.966 38.4119 138.207 38.366 138.453 38.366C138.803 38.3696 139.112 38.4662 139.378 38.6546C139.679 38.8623 139.832 39.1376 139.841 39.4805C139.833 39.7932 139.692 40.054 139.417 40.2617C139.191 40.4367 138.907 40.5249 138.56 40.5249C138.426 40.5285 138.306 40.5189 138.197 40.4935L138.054 40.4621V40.0673L138.329 40.1047L138.592 40.1301C138.741 40.1337 138.87 40.1047 138.979 40.0419C139.116 39.955 139.185 39.8415 139.185 39.7038C139.189 39.4829 139.06 39.3742 138.798 39.379C138.523 39.3827 138.182 39.5312 137.773 39.8234L137.335 40.1168C136.91 40.3885 136.507 40.5188 136.129 40.5116C135.899 40.5201 135.662 40.4597 135.417 40.3305C135.188 40.2097 135.021 40.0323 134.918 39.798C134.838 39.6435 134.801 39.4829 134.804 39.3163C134.813 38.8031 135.127 38.401 135.747 38.1088L136.178 37.9144L135.71 37.8203C134.91 37.6367 134.478 37.0282 134.417 35.9934L134.398 35.5551V33.4977H134.135L133.878 33.5097C133.72 33.5351 133.628 33.6293 133.603 33.7911L133.597 33.9601L133.491 33.8852C133.341 33.744 133.265 33.4832 133.265 33.1028C133.26 32.9736 133.271 32.8481 133.296 32.7273C133.368 32.2431 133.644 31.9992 134.127 31.9956H134.396V30.4248L134.384 30.1374C134.351 29.6448 134.167 29.3996 133.834 29.3996C133.539 29.3996 133.33 29.5687 133.21 29.9068L133.16 30.0879H132.954L132.945 29.8597ZM135.889 30.7037V36.253C135.884 36.4112 135.892 36.5561 135.914 36.6841C135.943 37.0221 136.092 37.2624 136.364 37.4037L136.545 37.4846V30.2159L135.889 30.7037ZM136.914 29.9659V31.7107L137.095 31.7602C137.282 31.8097 137.501 31.8338 137.751 31.829C138.018 31.829 138.25 31.8024 138.451 31.7481L138.576 31.7107V30.0335L138.326 29.9647C138.16 29.9068 137.991 29.7921 137.82 29.6206L137.639 29.4395L136.914 29.9659ZM136.914 32.1055V34.2958L137.244 34.2463L137.688 34.2209C137.892 34.2209 138.084 34.2306 138.264 34.2523L138.576 34.2958V32.1055L138.283 32.1803C138.133 32.2142 137.948 32.2287 137.727 32.2238C137.506 32.2274 137.326 32.2129 137.19 32.1803L136.914 32.1055ZM136.914 34.6894V37.5667L137.351 37.592C137.758 37.6005 138.081 37.4713 138.319 37.2045C138.486 37.0246 138.571 36.6829 138.575 36.1782V34.6894L138.337 34.658C138.1 34.6326 137.887 34.6181 137.699 34.6145C137.519 34.6145 137.338 34.6266 137.155 34.652L136.914 34.6894Z" fill="white"/>
<path d="M141.002 37.2091C141.089 37.1005 141.189 37.0051 141.302 36.9218L141.603 36.7274V33.2246L141.589 32.8056C141.573 32.5895 141.489 32.3661 141.34 32.1367L141.646 32.1681L141.978 32.1802C142.185 32.185 142.423 32.1621 142.69 32.1114C143.46 31.9773 144.196 31.7322 144.896 31.3736L145.208 31.2046L145.334 31.405C145.405 31.5052 145.513 31.6103 145.658 31.7177C145.942 31.9387 146.214 32.045 146.477 32.0365C146.623 32.0401 146.735 32.0184 146.815 31.9677L146.909 31.8928L146.94 31.9484L146.834 32.1355C146.705 32.3444 146.479 32.5678 146.159 32.8044V35.7385L146.165 36.1707L146.178 36.5463C146.186 36.667 146.215 36.7733 146.265 36.865L146.422 37.1029L145.984 37.0968C145.388 37.1053 144.852 37.1886 144.378 37.3468C144.161 37.4047 143.94 37.476 143.716 37.5593C143.461 37.68 143.258 37.8008 143.104 37.9227L142.841 38.1606L142.635 37.9601C142.531 37.8732 142.418 37.7851 142.297 37.6981C141.805 37.3564 141.386 37.2743 141.035 37.4542L140.854 37.5665L140.822 37.4856L141.002 37.2091ZM143.008 36.4533L143.364 36.5281C143.547 36.5825 143.73 36.6682 143.914 36.7841L144.189 36.9785L144.752 36.8348V32.9131L144.428 32.7948C144.17 32.703 143.936 32.5509 143.728 32.3384L143.009 32.5316V36.4533H143.008Z" fill="white"/>
<path d="M147.464 37.2224C147.556 37.0884 147.67 36.9725 147.808 36.8723L148.089 36.6839V33.7184C148.089 33.4601 148.071 33.2645 148.034 33.1304C147.979 32.9433 147.842 32.8141 147.621 32.7429L147.309 32.6619L147.603 32.3867C147.761 32.2406 147.901 32.0945 148.021 31.9484C148.142 31.8023 148.248 31.6586 148.34 31.5173L148.528 31.2046L148.815 31.393C149.116 31.6224 149.323 31.9991 149.44 32.5255L149.497 32.8008L149.953 32.319L150.383 31.7624L150.796 31.2058L150.89 31.463C151.107 31.9592 151.422 32.1174 151.833 31.9387L152.039 31.8324L152.021 32.2333C151.988 32.5002 151.865 32.738 151.652 32.9469C151.452 33.1389 151.208 33.2367 150.921 33.2403C150.75 33.2439 150.604 33.2113 150.483 33.1401L150.189 32.9397L150.008 32.802L149.495 33.3586V36.4557C149.845 36.5644 150.149 36.6936 150.407 36.8433L150.751 36.5994L150.989 36.8433C150.634 37.1222 150.375 37.3359 150.208 37.4844C150.042 37.6317 149.804 37.8587 149.495 38.163C148.725 37.5122 148.1 37.2876 147.621 37.4868L147.403 37.5871L147.309 37.5001L147.464 37.2224Z" fill="white"/>
<path d="M152.288 37.1731C152.405 37.0318 152.577 36.8772 152.806 36.7094L152.993 36.5718V30.4912V30.1784C152.976 29.8367 152.935 29.5952 152.868 29.4528L152.73 29.2089L153.074 29.1835C153.229 29.1714 153.374 29.1388 153.514 29.0869C153.654 29.035 153.805 28.9613 153.968 28.8648L154.424 28.5762L154.754 28.3323L154.623 28.7331L154.51 29.1268C154.476 29.2692 154.452 29.4105 154.435 29.5518L154.409 29.908L154.397 30.2956V32.6162L155.179 32.0656L156.36 31.2023C156.635 31.7022 156.852 32.0741 157.01 32.3156L157.554 33.1221L156.029 34.1352L156.092 34.2294L156.318 34.6049C156.406 34.7715 156.511 34.9997 156.636 35.2871L156.943 36.0248C157.046 36.2711 157.152 36.4836 157.261 36.6623C157.365 36.8338 157.522 36.9195 157.73 36.9195L157.936 36.9062L157.999 36.9871L156.724 38.1571C156.349 38.0617 156.04 37.7406 155.799 37.1936C155.728 37.0306 155.649 36.8205 155.561 36.5621L155.343 35.8992C155.251 35.6408 155.162 35.4175 155.074 35.2291L154.893 34.9043L154.4 35.2545V36.4498L154.5 36.5186L154.906 36.7939L155.225 37.0499L154.738 37.5256L154.119 38.1571L153.725 37.8384C153.313 37.5172 152.938 37.353 152.6 37.3445H152.463L152.288 37.3699L152.213 37.2697L152.288 37.1731ZM154.401 34.8077L156.169 33.5943L155.857 33.1246C155.757 32.9616 155.617 32.7092 155.438 32.3675L154.401 33.0678V34.8077Z" fill="white"/>
<path d="M68.4463 98.8462H71.1748C71.48 98.8462 71.755 98.8836 71.9998 98.9585C72.2447 99.0333 72.4546 99.136 72.6295 99.264C72.8044 99.3932 72.9383 99.5417 73.0324 99.7119C73.1265 99.8822 73.1735 100.064 73.1735 100.258C73.1735 100.546 73.0782 100.816 72.8888 101.063C72.6995 101.312 72.4269 101.515 72.071 101.674C72.34 101.74 72.5656 101.826 72.7501 101.93C72.9347 102.034 73.083 102.152 73.1952 102.285C73.3074 102.418 73.3894 102.561 73.4389 102.714C73.4895 102.867 73.5149 103.025 73.5149 103.191C73.5149 103.425 73.4594 103.643 73.3484 103.849C73.2374 104.054 73.0891 104.234 72.9033 104.388C72.7176 104.543 72.5028 104.665 72.2592 104.754C72.0155 104.843 71.7622 104.888 71.4969 104.888H68.4463V98.8462ZM69.1905 101.388H70.9975C71.2086 101.388 71.4016 101.36 71.5765 101.306C71.7514 101.251 71.9009 101.175 72.0264 101.08C72.1518 100.985 72.2507 100.873 72.3207 100.749C72.3907 100.624 72.4269 100.49 72.4269 100.348C72.4269 100.218 72.4015 100.097 72.3509 99.9872C72.3002 99.8761 72.223 99.7795 72.1169 99.6974C72.0107 99.6153 71.8756 99.5501 71.7116 99.503C71.5475 99.4547 71.3521 99.4318 71.1277 99.4318H69.1905V101.388ZM69.1905 104.303H71.1784C71.3666 104.303 71.5547 104.28 71.7441 104.234C71.9335 104.188 72.1036 104.118 72.2556 104.024C72.4064 103.929 72.5294 103.811 72.6259 103.666C72.7212 103.521 72.7694 103.351 72.7694 103.156C72.7694 102.994 72.7272 102.84 72.6416 102.694C72.5559 102.548 72.4329 102.421 72.2737 102.313C72.1144 102.204 71.9202 102.118 71.6898 102.056C71.4595 101.992 71.1989 101.96 70.907 101.96H69.1905V104.303Z" fill="white"/>
<path d="M71.4959 104.969H68.3633V98.7629H71.1738C71.485 98.7629 71.7709 98.8016 72.023 98.8788C72.2763 98.9561 72.4958 99.0636 72.6768 99.1964C72.8601 99.3316 73.0036 99.491 73.1026 99.6709C73.2027 99.8532 73.2533 100.05 73.2533 100.255C73.2533 100.561 73.152 100.849 72.9518 101.111C72.7913 101.321 72.5718 101.503 72.298 101.651C72.4838 101.709 72.649 101.778 72.7889 101.856C72.9807 101.964 73.1375 102.089 73.257 102.229C73.3764 102.371 73.4632 102.524 73.5163 102.686C73.5694 102.846 73.5959 103.016 73.5959 103.188C73.5959 103.434 73.5368 103.67 73.4198 103.886C73.3052 104.1 73.1484 104.289 72.9542 104.45C72.7612 104.609 72.5368 104.737 72.2859 104.83C72.0363 104.922 71.7697 104.969 71.4959 104.969ZM68.5285 104.805H71.4971C71.7516 104.805 71.9989 104.761 72.2317 104.676C72.4645 104.59 72.6731 104.472 72.8517 104.323C73.029 104.176 73.1725 104.003 73.2775 103.808C73.3812 103.616 73.4343 103.407 73.4343 103.188C73.4343 103.034 73.4101 102.881 73.3631 102.738C73.3161 102.595 73.2389 102.461 73.1339 102.336C73.0278 102.211 72.8854 102.098 72.7105 101.999C72.5332 101.899 72.3113 101.815 72.0519 101.751L71.8203 101.695L72.0387 101.597C72.38 101.445 72.6442 101.248 72.8251 101.011C73.0024 100.779 73.0929 100.525 73.0929 100.255C73.0929 100.078 73.0495 99.9076 72.9626 99.7494C72.8746 99.59 72.7467 99.4488 72.5827 99.3268C72.4162 99.2049 72.2124 99.1058 71.9784 99.0334C71.7419 98.961 71.4729 98.9247 71.1774 98.9247H68.5309V104.805H68.5285ZM71.1786 104.385H69.1087V101.877H70.9072C71.2052 101.877 71.4754 101.909 71.7118 101.975C71.9494 102.04 72.1532 102.13 72.3197 102.244C72.4886 102.359 72.6201 102.496 72.7117 102.651C72.8046 102.809 72.8517 102.978 72.8517 103.154C72.8517 103.366 72.7986 103.554 72.6948 103.711C72.5935 103.864 72.4596 103.994 72.2992 104.093C72.1412 104.19 71.9615 104.265 71.7648 104.312C71.5694 104.361 71.3728 104.385 71.1786 104.385ZM69.2728 104.221H71.1786C71.3596 104.221 71.5429 104.198 71.725 104.154C71.9048 104.111 72.0688 104.043 72.2124 103.954C72.3523 103.867 72.4681 103.754 72.5573 103.62C72.643 103.49 72.6864 103.334 72.6864 103.154C72.6864 103.008 72.6466 102.867 72.5694 102.734C72.491 102.6 72.3752 102.481 72.2268 102.379C72.076 102.277 71.8879 102.193 71.6671 102.133C71.4452 102.071 71.1895 102.04 70.906 102.04H69.2716V104.221H69.2728ZM70.9977 101.47H69.1087V99.3485H71.128C71.3595 99.3485 71.5646 99.3739 71.7347 99.4234C71.9084 99.4741 72.0543 99.5441 72.1677 99.6323C72.2835 99.7228 72.3704 99.8315 72.4259 99.9535C72.4801 100.074 72.5091 100.207 72.5091 100.348C72.5091 100.503 72.4705 100.651 72.3933 100.789C72.3185 100.923 72.2111 101.044 72.0773 101.145C71.9434 101.245 71.7829 101.326 71.602 101.383C71.4199 101.441 71.2172 101.47 70.9977 101.47ZM69.2728 101.306H70.9977C71.2003 101.306 71.3873 101.279 71.5513 101.227C71.7154 101.175 71.8589 101.104 71.9771 101.015C72.0929 100.927 72.1846 100.823 72.2498 100.709C72.3125 100.597 72.3451 100.475 72.3451 100.35C72.3451 100.231 72.3221 100.121 72.2775 100.022C72.2329 99.9245 72.1629 99.8363 72.0676 99.7627C71.9699 99.6866 71.8433 99.6263 71.6901 99.5816C71.5345 99.5357 71.3451 99.5127 71.1292 99.5127H69.274V101.306H69.2728Z" fill="white"/>
<path d="M79.9019 98.8462L82.4543 104.888H81.6787L80.8681 102.965H77.8839L77.0733 104.888H76.3037L78.8754 98.8462H79.9019ZM79.3784 99.4427L78.0901 102.479H80.6618L79.3784 99.4427Z" fill="white"/>
<path d="M82.578 104.969H81.6251L80.8145 103.046H77.9389L77.1283 104.969H76.1802L76.2284 104.854L78.8218 98.7629H79.9569L82.578 104.969ZM81.7337 104.805H82.3307L79.8483 98.9271H78.9304L76.4287 104.805H77.0197L77.8303 102.881H80.9243L81.7337 104.805ZM80.7856 102.562H77.9654L79.3779 99.2326L80.7856 102.562ZM78.2139 102.397H80.5383L79.3779 99.654L78.2139 102.397Z" fill="white"/>
<path d="M90.6093 100.566C90.6093 100.715 90.5888 100.863 90.5466 101.008C90.5044 101.152 90.4429 101.288 90.3608 101.417C90.2788 101.545 90.1751 101.663 90.0508 101.769C89.9266 101.876 89.7843 101.969 89.6226 102.047C89.8036 102.087 89.9519 102.149 90.0677 102.232C90.1835 102.314 90.274 102.409 90.3391 102.518C90.4043 102.627 90.4501 102.744 90.4754 102.871C90.5008 102.997 90.5128 103.128 90.5128 103.261V104.175C90.5128 104.305 90.5333 104.431 90.5755 104.554C90.6178 104.677 90.6708 104.788 90.7336 104.889H89.923C89.8892 104.844 89.8639 104.79 89.8446 104.731C89.8265 104.672 89.812 104.61 89.8024 104.548C89.7927 104.484 89.7855 104.422 89.7818 104.363C89.7782 104.304 89.777 104.253 89.777 104.208V103.247C89.777 103.131 89.7541 103.017 89.7095 102.903C89.6648 102.79 89.5901 102.687 89.4875 102.598C89.385 102.508 89.2523 102.436 89.0871 102.382C88.923 102.327 88.7228 102.299 88.4888 102.299H86.3646V104.889H85.6191V98.8474H88.4888C88.8313 98.8474 89.1341 98.8981 89.3971 99.0008C89.66 99.1034 89.882 99.2362 90.0617 99.3992C90.2414 99.5622 90.3765 99.7457 90.4694 99.951C90.5623 100.155 90.6093 100.36 90.6093 100.566ZM86.3658 101.73H88.49C88.6745 101.73 88.8494 101.699 89.0135 101.639C89.1775 101.579 89.3235 101.494 89.4489 101.388C89.5744 101.282 89.6745 101.157 89.7481 101.016C89.8216 100.875 89.859 100.721 89.859 100.557C89.859 100.395 89.8241 100.246 89.7553 100.109C89.6866 99.9715 89.5913 99.8532 89.4682 99.7518C89.3452 99.6504 89.2004 99.5719 89.0328 99.5151C88.8651 99.4596 88.6842 99.4306 88.4888 99.4306H86.3646V101.73H86.3658Z" fill="white"/>
<path d="M90.8831 104.969H89.8819L89.8578 104.935C89.8192 104.882 89.7891 104.821 89.7674 104.753C89.7481 104.69 89.7324 104.624 89.7215 104.557C89.7119 104.491 89.7046 104.427 89.6998 104.365C89.6962 104.304 89.695 104.252 89.695 104.206V103.245C89.695 103.141 89.6733 103.035 89.6323 102.931C89.5925 102.83 89.5249 102.738 89.4332 102.657C89.3391 102.575 89.2149 102.508 89.0617 102.456C88.9061 102.405 88.7131 102.378 88.4888 102.378H86.4466V104.968H85.5371V98.7617H88.4888C88.8398 98.7617 89.1558 98.8148 89.4272 98.9211C89.6986 99.0261 89.9302 99.1662 90.1172 99.3352C90.3041 99.5055 90.4477 99.6999 90.5442 99.9148C90.6407 100.13 90.6901 100.348 90.6901 100.563C90.6901 100.72 90.6684 100.876 90.6238 101.028C90.5791 101.18 90.5128 101.325 90.4272 101.459C90.3415 101.593 90.2318 101.719 90.1027 101.83C90.0219 101.9 89.9326 101.964 89.8373 102.021C89.9435 102.058 90.0363 102.105 90.1148 102.162C90.239 102.25 90.3379 102.354 90.4091 102.472C90.479 102.588 90.5285 102.715 90.555 102.851C90.5816 102.983 90.5936 103.119 90.5936 103.257V104.171C90.5936 104.291 90.6129 104.41 90.6527 104.524C90.6925 104.641 90.7432 104.748 90.8023 104.842L90.8831 104.969ZM89.9688 104.805H90.5936C90.5574 104.734 90.5261 104.658 90.4983 104.578C90.4537 104.446 90.4308 104.31 90.4308 104.172V103.258C90.4308 103.131 90.4187 103.006 90.3946 102.884C90.3717 102.767 90.3295 102.657 90.2692 102.558C90.21 102.459 90.1256 102.372 90.0207 102.297C89.9145 102.221 89.7746 102.164 89.6045 102.126L89.3741 102.074L89.5864 101.971C89.7408 101.896 89.8783 101.807 89.9965 101.705C90.1148 101.604 90.2124 101.492 90.2896 101.371C90.3668 101.25 90.426 101.12 90.467 100.983C90.5068 100.847 90.5261 100.706 90.5261 100.564C90.5261 100.372 90.4814 100.177 90.3946 99.9836C90.3065 99.7904 90.1763 99.613 90.0062 99.4584C89.8349 99.3026 89.6202 99.1734 89.3669 99.0756C89.1148 98.9778 88.8193 98.9271 88.4875 98.9271H85.7012V104.805H86.2826V102.215H88.4888C88.7312 102.215 88.9411 102.244 89.1136 102.302C89.2873 102.36 89.4308 102.438 89.5418 102.534C89.654 102.632 89.736 102.745 89.7855 102.871C89.8349 102.994 89.859 103.121 89.859 103.245V104.206C89.859 104.248 89.8602 104.298 89.8639 104.356C89.8675 104.411 89.8735 104.47 89.8831 104.532C89.8916 104.59 89.9061 104.648 89.923 104.703C89.9362 104.741 89.9507 104.775 89.9688 104.805ZM88.49 101.812H86.2838V99.3473H88.49C88.6926 99.3473 88.8844 99.3775 89.0593 99.4355C89.2354 99.4946 89.391 99.5792 89.5213 99.6866C89.6516 99.7941 89.7553 99.9233 89.8289 100.071C89.9037 100.219 89.9411 100.382 89.9411 100.556C89.9411 100.732 89.9013 100.9 89.8204 101.053C89.742 101.203 89.6347 101.337 89.502 101.451C89.3693 101.563 89.2137 101.652 89.0412 101.716C88.8687 101.78 88.683 101.812 88.49 101.812ZM86.4478 101.647H88.49C88.6649 101.647 88.8301 101.618 88.9845 101.562C89.1389 101.505 89.2776 101.425 89.3958 101.325C89.5128 101.226 89.6069 101.109 89.6757 100.977C89.7432 100.848 89.777 100.706 89.777 100.556C89.777 100.409 89.7456 100.27 89.6829 100.144C89.619 100.017 89.5297 99.9064 89.4175 99.8134C89.303 99.7192 89.1654 99.6443 89.0074 99.5912C88.8482 99.5381 88.6745 99.5115 88.49 99.5115H86.4478V101.647Z" fill="white"/>
<path d="M94.1392 98.8462H96.8677C97.1728 98.8462 97.4478 98.8836 97.6927 98.9585C97.9376 99.0333 98.1475 99.136 98.3224 99.264C98.4973 99.3932 98.6312 99.5417 98.7253 99.7119C98.8193 99.8822 98.8664 100.064 98.8664 100.258C98.8664 100.546 98.7711 100.816 98.5817 101.063C98.3923 101.312 98.1197 101.515 97.7639 101.674C98.0329 101.74 98.2584 101.826 98.443 101.93C98.6276 102.034 98.7759 102.152 98.8881 102.285C99.0003 102.418 99.0823 102.561 99.1318 102.714C99.1824 102.867 99.2077 103.025 99.2077 103.191C99.2077 103.425 99.1523 103.643 99.0413 103.849C98.9303 104.054 98.782 104.234 98.5962 104.388C98.4104 104.543 98.1957 104.665 97.9521 104.754C97.7084 104.843 97.4551 104.888 97.1897 104.888H94.1392V98.8462ZM94.8834 101.388H96.6903C96.9014 101.388 97.0944 101.36 97.2693 101.306C97.4442 101.251 97.5938 101.175 97.7193 101.08C97.8447 100.985 97.9436 100.873 98.0136 100.749C98.0835 100.624 98.1197 100.49 98.1197 100.348C98.1197 100.218 98.0944 100.097 98.0437 99.9872C97.9931 99.8761 97.9159 99.7795 97.8097 99.6974C97.7036 99.6153 97.5685 99.5501 97.4044 99.503C97.2404 99.4547 97.045 99.4318 96.8206 99.4318H94.8834V101.388ZM94.8834 104.303H96.8713C97.0594 104.303 97.2476 104.28 97.437 104.234C97.6264 104.188 97.7965 104.118 97.9484 104.024C98.0992 103.929 98.2223 103.811 98.3188 103.666C98.414 103.521 98.4623 103.351 98.4623 103.156C98.4623 102.994 98.4201 102.84 98.3344 102.694C98.2488 102.548 98.1258 102.421 97.9665 102.313C97.8073 102.204 97.6131 102.118 97.3827 102.056C97.1523 101.992 96.8918 101.96 96.5999 101.96H94.8834V104.303Z" fill="white"/>
<path d="M97.1882 104.969H94.0557V98.7629H96.8662C97.1786 98.7629 97.4645 98.8016 97.7154 98.8788C97.9687 98.9573 98.1882 99.0636 98.3691 99.1964C98.5525 99.3316 98.696 99.491 98.7949 99.6709C98.8951 99.8532 98.9457 100.05 98.9457 100.255C98.9457 100.561 98.8444 100.849 98.6442 101.111C98.4837 101.321 98.2642 101.503 97.9904 101.651C98.1761 101.709 98.3402 101.778 98.4813 101.856C98.6731 101.964 98.8299 102.089 98.9493 102.229C99.0688 102.371 99.1556 102.524 99.2087 102.686C99.2618 102.846 99.2883 103.016 99.2883 103.188C99.2883 103.434 99.2292 103.669 99.1122 103.885C98.9964 104.099 98.8408 104.288 98.6466 104.449C98.4536 104.608 98.2292 104.736 97.9783 104.829C97.7286 104.922 97.4621 104.969 97.1882 104.969ZM94.2209 104.805H97.1894C97.444 104.805 97.6912 104.761 97.924 104.676C98.1568 104.59 98.3655 104.472 98.544 104.323C98.7214 104.176 98.8637 104.003 98.9698 103.808C99.0736 103.616 99.1254 103.407 99.1254 103.188C99.1254 103.032 99.1013 102.881 99.0543 102.738C99.0072 102.597 98.93 102.461 98.8251 102.336C98.7189 102.211 98.5766 102.098 98.4017 102C98.2244 101.9 98.0024 101.817 97.7431 101.753L97.5115 101.695L97.7298 101.597C98.0712 101.445 98.3354 101.248 98.5163 101.011C98.6936 100.778 98.7841 100.525 98.7841 100.255C98.7841 100.078 98.7407 99.9076 98.6538 99.7494C98.5658 99.59 98.4379 99.4488 98.2738 99.3268C98.1086 99.2049 97.9047 99.1058 97.6695 99.0334C97.4331 98.961 97.1629 98.9247 96.8674 98.9247H94.2209V104.805ZM96.871 104.385H94.8011V101.877H96.5996C96.8975 101.877 97.1677 101.909 97.4042 101.975C97.6406 102.04 97.8456 102.13 98.0121 102.244C98.181 102.359 98.3124 102.496 98.4041 102.651C98.497 102.809 98.544 102.978 98.544 103.154C98.544 103.367 98.491 103.554 98.3872 103.711C98.2859 103.864 98.1532 103.992 97.9928 104.093C97.8348 104.19 97.6551 104.265 97.4584 104.312C97.2618 104.361 97.0652 104.385 96.871 104.385ZM94.9652 104.221H96.871C97.0519 104.221 97.2353 104.198 97.4174 104.154C97.5972 104.111 97.7612 104.043 97.9047 103.954C98.0447 103.867 98.1617 103.754 98.2497 103.62C98.3354 103.49 98.38 103.334 98.38 103.154C98.38 103.008 98.3402 102.867 98.263 102.734C98.1846 102.6 98.0688 102.481 97.9204 102.379C97.7684 102.277 97.5803 102.193 97.3607 102.133C97.1388 102.071 96.8831 102.04 96.5996 102.04H94.9652V104.221ZM96.6901 101.47H94.8011V99.3485H96.8203C97.0519 99.3485 97.257 99.3739 97.4271 99.4234C97.5996 99.4729 97.7455 99.5441 97.8601 99.6323C97.9759 99.7228 98.0628 99.8303 98.1182 99.9535C98.1737 100.075 98.2015 100.208 98.2015 100.348C98.2015 100.503 98.1629 100.651 98.0857 100.789C98.0097 100.924 97.9035 101.044 97.7696 101.145C97.6357 101.245 97.4765 101.326 97.2944 101.383C97.1123 101.441 96.9096 101.47 96.6901 101.47ZM94.9652 101.306H96.6901C96.8927 101.306 97.0785 101.279 97.2437 101.227C97.4078 101.175 97.5513 101.104 97.6695 101.015C97.7853 100.927 97.877 100.824 97.9421 100.709C98.0049 100.597 98.0374 100.475 98.0374 100.35C98.0374 100.232 98.0145 100.121 97.9687 100.022C97.9228 99.9233 97.8553 99.8376 97.7588 99.7627C97.6611 99.6866 97.5344 99.6263 97.3812 99.5816C97.2256 99.5357 97.0363 99.5127 96.8203 99.5127H94.9652V101.306Z" fill="white"/>
<path d="M107.044 98.8462V99.4306H103.108V101.475H106.813V102.059H103.108V104.303H107.22V104.887H102.363V98.845H107.044V98.8462Z" fill="white"/>
<path d="M107.302 104.969H102.281V98.7629H107.126V99.5115H103.19V101.392H106.895V102.14H103.19V104.219H107.302V104.969ZM102.446 104.805H107.139V104.385H103.027V101.977H106.732V101.557H103.027V99.3485H106.963V98.9284H102.446V104.805Z" fill="white"/>
<path d="M115.502 100.566C115.502 100.715 115.48 100.863 115.439 101.008C115.397 101.152 115.335 101.288 115.253 101.417C115.171 101.545 115.067 101.663 114.943 101.769C114.819 101.876 114.677 101.969 114.515 102.047C114.696 102.087 114.844 102.149 114.96 102.232C115.076 102.314 115.166 102.409 115.231 102.518C115.297 102.627 115.342 102.744 115.368 102.871C115.393 102.997 115.405 103.128 115.405 103.261V104.175C115.405 104.305 115.426 104.431 115.468 104.554C115.51 104.677 115.563 104.788 115.627 104.889H114.817C114.783 104.844 114.757 104.79 114.738 104.731C114.72 104.672 114.706 104.61 114.696 104.548C114.686 104.484 114.679 104.422 114.675 104.363C114.672 104.304 114.671 104.253 114.671 104.208V103.247C114.671 103.131 114.648 103.017 114.603 102.903C114.558 102.79 114.484 102.687 114.381 102.598C114.279 102.508 114.146 102.436 113.981 102.382C113.817 102.327 113.616 102.299 113.381 102.299H111.257V104.889H110.513V98.8474H113.382C113.725 98.8474 114.028 98.8981 114.291 99.0008C114.554 99.1034 114.776 99.2362 114.955 99.3992C115.135 99.5622 115.27 99.7457 115.363 99.951C115.455 100.155 115.502 100.36 115.502 100.566ZM111.258 101.73H113.382C113.567 101.73 113.742 101.699 113.906 101.639C114.07 101.579 114.216 101.494 114.341 101.388C114.467 101.282 114.567 101.157 114.64 101.016C114.714 100.875 114.751 100.721 114.751 100.557C114.751 100.395 114.716 100.246 114.648 100.109C114.579 99.9715 114.482 99.8532 114.361 99.7518C114.238 99.6504 114.093 99.5719 113.925 99.5151C113.757 99.4596 113.577 99.4306 113.381 99.4306H111.257V101.73H111.258Z" fill="white"/>
<path d="M115.776 104.969H114.775L114.751 104.935C114.712 104.882 114.682 104.821 114.66 104.753C114.641 104.689 114.625 104.623 114.615 104.557C114.604 104.491 114.596 104.427 114.593 104.365C114.589 104.305 114.588 104.252 114.588 104.207V103.246C114.588 103.141 114.568 103.035 114.525 102.932C114.486 102.831 114.418 102.739 114.326 102.658C114.232 102.576 114.108 102.51 113.955 102.458C113.799 102.406 113.606 102.379 113.382 102.379H111.34V104.969H110.43V98.7629H113.382C113.733 98.7629 114.049 98.8161 114.32 98.9223C114.592 99.0274 114.823 99.1674 115.01 99.3365C115.197 99.5067 115.341 99.7011 115.437 99.916C115.534 100.131 115.583 100.35 115.583 100.564C115.583 100.721 115.56 100.877 115.517 101.029C115.472 101.181 115.407 101.326 115.321 101.46C115.235 101.596 115.125 101.72 114.996 101.831C114.915 101.9 114.826 101.964 114.73 102.022C114.837 102.059 114.929 102.106 115.008 102.163C115.132 102.251 115.231 102.355 115.302 102.473C115.372 102.589 115.422 102.716 115.448 102.852C115.475 102.984 115.488 103.121 115.488 103.258V104.172C115.488 104.293 115.507 104.411 115.546 104.525C115.586 104.641 115.636 104.748 115.697 104.844L115.776 104.969ZM114.862 104.805H115.487C115.45 104.734 115.418 104.658 115.391 104.578C115.347 104.448 115.324 104.311 115.324 104.172V103.258C115.324 103.131 115.312 103.005 115.288 102.884C115.265 102.767 115.223 102.657 115.162 102.558C115.103 102.459 115.019 102.371 114.914 102.296C114.808 102.22 114.668 102.163 114.498 102.124L114.267 102.073L114.479 101.97C114.634 101.895 114.771 101.806 114.89 101.704C115.007 101.604 115.106 101.491 115.184 101.369C115.261 101.248 115.32 101.117 115.36 100.981C115.4 100.845 115.42 100.703 115.42 100.562C115.42 100.37 115.376 100.174 115.289 99.9812C115.201 99.788 115.071 99.6106 114.9 99.456C114.729 99.3002 114.514 99.171 114.261 99.0732C114.009 98.9754 113.714 98.9247 113.382 98.9247H110.595V104.802H111.176V102.213H113.382C113.624 102.213 113.834 102.242 114.007 102.3C114.18 102.357 114.324 102.436 114.435 102.531C114.547 102.63 114.629 102.743 114.679 102.868C114.728 102.991 114.752 103.117 114.752 103.242V104.204C114.752 104.246 114.753 104.295 114.757 104.353C114.759 104.41 114.767 104.469 114.776 104.53C114.786 104.59 114.799 104.647 114.816 104.702C114.829 104.742 114.844 104.775 114.862 104.805ZM113.383 101.812H111.177V99.3473H113.383C113.584 99.3473 113.776 99.3775 113.952 99.4355C114.13 99.4946 114.284 99.5792 114.414 99.6866C114.546 99.7953 114.648 99.9233 114.723 100.071C114.798 100.219 114.835 100.382 114.835 100.556C114.835 100.732 114.796 100.9 114.715 101.053C114.636 101.203 114.529 101.337 114.396 101.451C114.264 101.563 114.108 101.652 113.935 101.716C113.762 101.78 113.576 101.812 113.383 101.812ZM111.341 101.647H113.383C113.558 101.647 113.723 101.618 113.878 101.562C114.032 101.505 114.171 101.425 114.289 101.325C114.406 101.226 114.5 101.109 114.569 100.977C114.636 100.848 114.67 100.706 114.67 100.556C114.67 100.409 114.639 100.27 114.576 100.144C114.513 100.019 114.424 99.9076 114.309 99.8134C114.196 99.7192 114.057 99.6444 113.901 99.5912C113.741 99.5381 113.568 99.5115 113.383 99.5115H111.341V101.647Z" fill="white"/>
<path d="M119.333 102.998C119.35 103.214 119.407 103.414 119.504 103.594C119.602 103.775 119.731 103.931 119.892 104.063C120.052 104.196 120.243 104.3 120.462 104.372C120.682 104.446 120.923 104.482 121.185 104.482C121.419 104.482 121.644 104.461 121.859 104.415C122.074 104.37 122.263 104.299 122.428 104.202C122.592 104.106 122.724 103.98 122.82 103.825C122.918 103.671 122.966 103.484 122.966 103.265C122.966 103.087 122.913 102.934 122.808 102.809C122.702 102.683 122.563 102.575 122.391 102.484C122.218 102.393 122.022 102.315 121.802 102.247C121.583 102.181 121.36 102.119 121.135 102.061C120.947 102.016 120.759 101.965 120.569 101.91C120.38 101.856 120.197 101.793 120.021 101.725C119.844 101.656 119.68 101.576 119.527 101.487C119.374 101.397 119.243 101.292 119.129 101.17C119.017 101.05 118.928 100.911 118.863 100.757C118.797 100.603 118.765 100.424 118.765 100.222C118.765 99.9713 118.822 99.7504 118.936 99.5572C119.05 99.3652 119.21 99.2046 119.416 99.0742C119.623 98.9438 119.87 98.846 120.156 98.7772C120.443 98.7096 120.758 98.6758 121.099 98.6758C121.404 98.6758 121.674 98.7023 121.91 98.7543C122.145 98.8062 122.35 98.8774 122.524 98.9668C122.698 99.0561 122.846 99.1612 122.966 99.2807C123.087 99.4002 123.186 99.527 123.263 99.6598C123.34 99.7926 123.397 99.9291 123.434 100.072C123.472 100.213 123.495 100.349 123.504 100.478H122.739C122.719 100.277 122.662 100.099 122.571 99.946C122.478 99.7938 122.359 99.6647 122.214 99.5608C122.068 99.457 121.899 99.3785 121.708 99.3266C121.518 99.2747 121.314 99.2481 121.099 99.2481C120.901 99.2481 120.707 99.265 120.518 99.3C120.328 99.335 120.158 99.3906 120.01 99.4666C119.86 99.5427 119.74 99.6429 119.647 99.7673C119.554 99.8917 119.508 100.044 119.508 100.221C119.508 100.406 119.56 100.563 119.664 100.691C119.767 100.82 119.907 100.93 120.081 101.022C120.256 101.115 120.455 101.193 120.677 101.26C120.9 101.326 121.13 101.391 121.369 101.455C121.561 101.505 121.75 101.557 121.937 101.611C122.125 101.665 122.306 101.728 122.481 101.797C122.656 101.866 122.818 101.945 122.967 102.034C123.117 102.122 123.247 102.224 123.357 102.342C123.468 102.459 123.554 102.593 123.616 102.744C123.679 102.896 123.709 103.07 123.709 103.265C123.709 103.56 123.647 103.819 123.521 104.043C123.396 104.266 123.22 104.453 122.995 104.603C122.771 104.754 122.504 104.866 122.195 104.944C121.887 105.021 121.55 105.058 121.183 105.058C120.854 105.058 120.534 105.01 120.222 104.913C119.91 104.817 119.632 104.679 119.389 104.502C119.145 104.324 118.948 104.108 118.8 103.854C118.65 103.601 118.571 103.315 118.561 102.997H119.333V102.998Z" fill="white"/>
<path d="M121.184 105.143C120.849 105.143 120.517 105.093 120.199 104.994C119.879 104.895 119.591 104.753 119.342 104.571C119.092 104.387 118.885 104.161 118.731 103.898C118.575 103.634 118.491 103.332 118.48 103.002L118.478 102.918H119.409L119.415 102.994C119.43 103.199 119.485 103.387 119.576 103.556C119.668 103.727 119.792 103.876 119.944 104.002C120.096 104.127 120.28 104.228 120.49 104.296C120.89 104.43 121.407 104.428 121.844 104.338C122.049 104.295 122.231 104.226 122.388 104.135C122.54 104.045 122.663 103.927 122.752 103.784C122.84 103.644 122.886 103.471 122.886 103.268C122.886 103.107 122.84 102.976 122.748 102.863C122.65 102.746 122.517 102.643 122.354 102.558C122.188 102.47 121.995 102.392 121.78 102.327C121.558 102.261 121.335 102.198 121.117 102.142C120.929 102.097 120.738 102.046 120.549 101.99C120.359 101.936 120.172 101.872 119.993 101.802C119.812 101.731 119.643 101.649 119.488 101.558C119.33 101.466 119.19 101.354 119.072 101.227C118.954 101.1 118.86 100.953 118.79 100.79C118.721 100.626 118.685 100.435 118.685 100.223C118.685 99.9582 118.747 99.7203 118.867 99.5162C118.987 99.3146 119.158 99.1431 119.375 99.0055C119.587 98.8715 119.845 98.7676 120.14 98.6988C120.432 98.63 120.756 98.595 121.102 98.595C121.412 98.595 121.691 98.6215 121.93 98.6747C122.171 98.7278 122.383 98.8014 122.564 98.8944C122.745 98.9874 122.902 99.0985 123.027 99.2228C123.153 99.3472 123.258 99.4812 123.337 99.6189C123.417 99.7565 123.479 99.9014 123.517 100.051C123.555 100.196 123.58 100.339 123.59 100.473L123.597 100.561H122.669L122.662 100.487C122.644 100.299 122.59 100.131 122.505 99.9883C122.418 99.8459 122.306 99.7239 122.171 99.6273C122.034 99.5295 121.872 99.4547 121.691 99.4064C121.338 99.3098 120.918 99.3122 120.537 99.3822C120.356 99.4148 120.192 99.4691 120.05 99.5416C119.913 99.6116 119.801 99.7046 119.716 99.8181C119.636 99.9268 119.595 100.063 119.595 100.224C119.595 100.392 119.639 100.528 119.732 100.642C119.829 100.761 119.96 100.865 120.124 100.952C120.294 101.042 120.49 101.12 120.705 101.184C120.929 101.25 121.158 101.315 121.395 101.378C121.587 101.428 121.777 101.48 121.966 101.535C122.155 101.591 122.341 101.653 122.517 101.723C122.693 101.793 122.861 101.874 123.014 101.965C123.17 102.057 123.307 102.165 123.422 102.287C123.539 102.41 123.632 102.554 123.697 102.715C123.763 102.875 123.796 103.061 123.796 103.268C123.796 103.574 123.728 103.85 123.597 104.085C123.465 104.319 123.28 104.517 123.044 104.674C122.813 104.829 122.535 104.947 122.218 105.026C121.903 105.103 121.556 105.143 121.184 105.143ZM118.649 103.081C118.669 103.35 118.744 103.596 118.872 103.815C119.014 104.057 119.206 104.267 119.439 104.438C119.673 104.609 119.946 104.743 120.248 104.837C120.892 105.037 121.609 105.008 122.177 104.866C122.475 104.793 122.736 104.682 122.951 104.538C123.164 104.397 123.333 104.217 123.452 104.005C123.57 103.795 123.631 103.547 123.631 103.269C123.631 103.084 123.602 102.919 123.544 102.778C123.486 102.635 123.404 102.508 123.301 102.401C123.198 102.29 123.072 102.192 122.93 102.107C122.784 102.022 122.625 101.944 122.456 101.877C122.284 101.809 122.105 101.748 121.919 101.693C121.732 101.639 121.544 101.587 121.353 101.537C121.113 101.473 120.882 101.408 120.658 101.342C120.433 101.274 120.227 101.192 120.047 101.098C119.862 101 119.714 100.882 119.604 100.745C119.488 100.603 119.429 100.428 119.429 100.224C119.429 100.028 119.481 99.8579 119.584 99.7203C119.683 99.5863 119.815 99.4764 119.974 99.3955C120.129 99.3158 120.309 99.2566 120.505 99.2204C120.909 99.1468 121.353 99.1456 121.732 99.2482C121.932 99.3025 122.111 99.3858 122.264 99.4945C122.418 99.6044 122.546 99.742 122.644 99.9038C122.731 100.049 122.789 100.214 122.815 100.398H123.417C123.405 100.3 123.384 100.197 123.358 100.093C123.323 99.9594 123.267 99.8278 123.195 99.7034C123.122 99.5778 123.026 99.4559 122.912 99.3412C122.797 99.2277 122.655 99.1274 122.489 99.0429C122.322 98.9572 122.122 98.8884 121.895 98.8377C121.667 98.787 121.4 98.7616 121.102 98.7616C120.768 98.7616 120.457 98.7954 120.177 98.8606C119.9 98.9258 119.66 99.0224 119.462 99.1468C119.268 99.2699 119.114 99.4221 119.008 99.602C118.902 99.7807 118.849 99.9896 118.849 100.225C118.849 100.415 118.88 100.585 118.941 100.729C119.002 100.873 119.087 101.005 119.192 101.118C119.299 101.234 119.426 101.335 119.57 101.419C119.718 101.506 119.879 101.585 120.053 101.652C120.228 101.721 120.41 101.783 120.594 101.836C120.783 101.89 120.971 101.941 121.158 101.987C121.38 102.043 121.604 102.106 121.828 102.174C122.053 102.241 122.255 102.324 122.432 102.415C122.614 102.511 122.762 102.627 122.874 102.759C122.992 102.899 123.052 103.071 123.052 103.269C123.052 103.503 122.998 103.706 122.894 103.874C122.79 104.039 122.647 104.174 122.473 104.278C122.3 104.38 122.101 104.453 121.879 104.501C121.416 104.598 120.868 104.598 120.44 104.455C120.212 104.379 120.011 104.27 119.843 104.131C119.674 103.992 119.538 103.826 119.435 103.637C119.345 103.469 119.287 103.283 119.262 103.085H118.649V103.081Z" fill="white"/>
<path d="M127.614 98.8462V101.475H131.434V98.8462H132.179V104.888H131.434V102.047H127.614V104.888H126.87V98.8462H127.614Z" fill="white"/>
<path d="M132.26 104.969H131.351V102.128H127.695V104.969H126.785V98.7629H127.695V101.392H131.351V98.7629H132.26V104.969ZM131.516 104.805H132.097V98.9271H131.516V101.556H127.532V98.9271H126.95V104.805H127.531V101.964H131.515V104.805H131.516Z" fill="white"/>
<path d="M141.633 101.86C141.633 102.325 141.563 102.752 141.425 103.142C141.285 103.532 141.081 103.868 140.813 104.149C140.544 104.431 140.215 104.649 139.824 104.806C139.433 104.962 138.986 105.039 138.483 105.039C137.98 105.039 137.532 104.962 137.141 104.806C136.751 104.65 136.421 104.432 136.155 104.149C135.888 103.868 135.684 103.532 135.546 103.142C135.407 102.752 135.337 102.325 135.337 101.86C135.337 101.398 135.407 100.973 135.546 100.585C135.686 100.196 135.888 99.8629 136.155 99.5816C136.421 99.3014 136.751 99.0841 137.141 98.9283C137.532 98.7726 137.98 98.6941 138.483 98.6941C138.986 98.6941 139.433 98.7726 139.824 98.9283C140.215 99.0841 140.544 99.3026 140.813 99.5816C141.081 99.8617 141.285 100.196 141.425 100.585C141.563 100.973 141.633 101.399 141.633 101.86ZM140.883 101.86C140.883 101.453 140.822 101.088 140.697 100.766C140.573 100.444 140.403 100.171 140.186 99.9474C139.97 99.724 139.716 99.5538 139.424 99.4367C139.132 99.3195 138.818 99.2616 138.483 99.2616C138.144 99.2616 137.829 99.3195 137.537 99.4367C137.245 99.5538 136.992 99.724 136.777 99.9474C136.562 100.171 136.394 100.444 136.272 100.766C136.15 101.087 136.088 101.452 136.088 101.86C136.088 102.267 136.15 102.633 136.272 102.955C136.395 103.279 136.562 103.552 136.777 103.776C136.992 104 137.245 104.171 137.537 104.289C137.829 104.408 138.144 104.467 138.483 104.467C138.818 104.467 139.132 104.408 139.424 104.289C139.716 104.171 139.97 104 140.186 103.776C140.403 103.553 140.573 103.279 140.697 102.955C140.822 102.633 140.883 102.267 140.883 101.86Z" fill="white"/>
<path d="M138.481 105.121C137.969 105.121 137.508 105.04 137.11 104.882C136.709 104.723 136.368 104.495 136.094 104.206C135.822 103.919 135.61 103.57 135.467 103.17C135.326 102.773 135.253 102.332 135.253 101.86C135.253 101.39 135.326 100.952 135.467 100.557C135.609 100.16 135.82 99.8123 136.094 99.5261C136.368 99.2387 136.709 99.0117 137.11 98.8523C137.509 98.693 137.97 98.6133 138.481 98.6133C138.993 98.6133 139.455 98.6942 139.853 98.8523C140.252 99.0117 140.595 99.2387 140.871 99.5261C141.146 99.8135 141.358 100.161 141.5 100.558C141.642 100.953 141.714 101.393 141.714 101.861C141.714 102.333 141.642 102.774 141.5 103.171C141.357 103.571 141.146 103.919 140.871 104.207C140.596 104.496 140.253 104.724 139.853 104.883C139.456 105.04 138.994 105.121 138.481 105.121ZM138.481 98.7763C137.99 98.7763 137.55 98.8536 137.17 99.0045C136.793 99.1554 136.471 99.3679 136.212 99.6384C135.954 99.9089 135.756 100.237 135.621 100.613C135.486 100.991 135.417 101.41 135.417 101.86C135.417 102.313 135.486 102.735 135.621 103.115C135.756 103.493 135.955 103.821 136.212 104.093C136.469 104.364 136.791 104.579 137.17 104.729C137.549 104.88 137.989 104.957 138.481 104.957C138.972 104.957 139.414 104.88 139.792 104.729C140.171 104.578 140.493 104.364 140.753 104.093C141.011 103.821 141.211 103.493 141.346 103.115C141.481 102.735 141.55 102.313 141.55 101.86C141.55 101.41 141.481 100.989 141.346 100.613C141.211 100.237 141.012 99.9101 140.753 99.6384C140.493 99.3679 140.17 99.1542 139.792 99.0045C139.414 98.8536 138.972 98.7763 138.481 98.7763ZM138.481 104.549C138.133 104.549 137.805 104.487 137.504 104.365C137.203 104.244 136.937 104.064 136.715 103.833C136.495 103.602 136.319 103.317 136.192 102.984C136.066 102.653 136.002 102.274 136.002 101.86C136.002 101.445 136.066 101.067 136.192 100.737C136.317 100.406 136.493 100.121 136.715 99.8907C136.937 99.6601 137.203 99.4814 137.504 99.3607C138.103 99.1216 138.849 99.1192 139.452 99.3607C139.754 99.4814 140.02 99.6601 140.244 99.8907C140.467 100.121 140.644 100.406 140.772 100.737C140.899 101.067 140.964 101.445 140.964 101.86C140.964 102.275 140.9 102.655 140.772 102.985C140.644 103.317 140.467 103.604 140.244 103.834C140.02 104.065 139.755 104.245 139.454 104.367C139.154 104.487 138.826 104.549 138.481 104.549ZM138.481 99.3438C138.154 99.3438 137.847 99.4005 137.566 99.5128C137.286 99.6251 137.04 99.7905 136.835 100.004C136.629 100.219 136.464 100.485 136.346 100.795C136.228 101.105 136.168 101.464 136.168 101.86C136.168 102.255 136.228 102.613 136.346 102.926C136.464 103.238 136.629 103.505 136.835 103.719C137.04 103.933 137.286 104.1 137.567 104.213C138.125 104.439 138.829 104.442 139.393 104.213C139.673 104.1 139.92 103.933 140.128 103.719C140.335 103.506 140.502 103.238 140.621 102.926C140.741 102.615 140.802 102.256 140.802 101.86C140.802 101.464 140.742 101.107 140.621 100.796C140.502 100.486 140.336 100.22 140.128 100.005C139.92 99.7917 139.674 99.6263 139.394 99.514C139.112 99.4005 138.806 99.3438 138.481 99.3438Z" fill="white"/>
<path d="M144.79 98.8462H147.447C147.789 98.8462 148.091 98.8969 148.353 98.9995C148.615 99.1022 148.834 99.235 149.013 99.398C149.19 99.561 149.326 99.7445 149.418 99.9498C149.511 100.155 149.557 100.36 149.557 100.564C149.557 100.784 149.511 100.998 149.418 101.206C149.325 101.413 149.19 101.598 149.01 101.76C148.83 101.922 148.61 102.052 148.348 102.15C148.086 102.248 147.786 102.297 147.447 102.297H145.534V104.887H144.79V98.8462ZM145.534 101.73H147.447C147.628 101.73 147.802 101.699 147.966 101.639C148.13 101.579 148.276 101.494 148.401 101.388C148.526 101.282 148.627 101.157 148.7 101.016C148.774 100.875 148.811 100.721 148.811 100.557C148.811 100.395 148.777 100.246 148.707 100.109C148.639 99.9715 148.543 99.8532 148.42 99.7518C148.297 99.6503 148.154 99.5719 147.987 99.5151C147.821 99.4596 147.641 99.4306 147.447 99.4306H145.534V101.73Z" fill="white"/>
<path d="M145.616 104.969H144.706V98.7629H147.445C147.796 98.7629 148.111 98.8161 148.381 98.9223C148.652 99.0274 148.882 99.1674 149.067 99.3365C149.252 99.5067 149.395 99.7011 149.491 99.9148C149.588 100.13 149.637 100.348 149.637 100.563C149.637 100.794 149.588 101.02 149.491 101.237C149.395 101.454 149.251 101.65 149.063 101.819C148.876 101.987 148.644 102.123 148.375 102.225C148.106 102.326 147.793 102.377 147.445 102.377H145.614V104.969H145.616ZM144.871 104.805H145.452V102.215H147.447C147.775 102.215 148.068 102.167 148.319 102.073C148.57 101.978 148.783 101.853 148.954 101.698C149.124 101.545 149.255 101.367 149.342 101.172C149.428 100.975 149.473 100.771 149.473 100.564C149.473 100.372 149.428 100.177 149.342 99.9836C149.254 99.7905 149.124 99.613 148.956 99.4584C148.786 99.3027 148.572 99.1735 148.322 99.0757C148.071 98.9779 147.777 98.9271 147.447 98.9271H144.871V104.805ZM147.447 101.812H145.452V99.3473H147.447C147.649 99.3473 147.84 99.3775 148.014 99.4355C148.188 99.4946 148.343 99.5792 148.472 99.6866C148.603 99.7953 148.707 99.9245 148.779 100.071C148.853 100.218 148.892 100.381 148.892 100.556C148.892 100.733 148.852 100.9 148.772 101.053C148.694 101.204 148.587 101.337 148.453 101.451C148.321 101.563 148.166 101.652 147.993 101.716C147.821 101.78 147.637 101.812 147.447 101.812ZM145.616 101.647H147.447C147.618 101.647 147.782 101.618 147.936 101.562C148.091 101.505 148.229 101.425 148.346 101.325C148.463 101.226 148.558 101.109 148.626 100.977C148.694 100.848 148.728 100.707 148.728 100.556C148.728 100.407 148.696 100.27 148.634 100.144C148.571 100.019 148.482 99.9076 148.368 99.8134C148.254 99.7192 148.117 99.6444 147.962 99.5912C147.805 99.5381 147.631 99.5115 147.447 99.5115H145.616V101.647Z" fill="white"/>
<path d="M102.854 125.719H115.148V118.057H102.854V125.719ZM114.326 120.373V123.065L110.144 118.878H112.833L114.326 120.373ZM113.451 124.896H110.762L104.751 118.88H107.44L113.451 124.896ZM103.675 123.202V120.511L108.056 124.896H105.368L103.675 123.202Z" fill="white"/>
<path d="M101.561 118.468H101.073C99.1867 118.468 97.6572 119.999 97.6572 121.887C97.6572 123.776 99.1867 125.307 101.073 125.307H101.561V126H102.376V117.776H101.561V118.468ZM101.561 124.214H101.194C99.7778 124.214 98.6294 123.065 98.6294 121.647C98.6294 121.496 98.6451 121.349 98.6705 121.205C98.8803 122.411 99.9286 123.33 101.194 123.33H101.561V124.214Z" fill="white"/>
<path d="M116.439 126V125.308H116.927C118.813 125.308 120.343 123.777 120.343 121.889C120.343 120 118.813 118.469 116.927 118.469H116.439V117.776H115.624V126H116.439ZM116.439 119.561H116.806C118.222 119.561 119.371 120.71 119.371 122.128C119.371 122.279 119.355 122.426 119.33 122.57C119.12 121.363 118.071 120.445 116.806 120.445H116.439V119.561Z" fill="white"/>
<path d="M125.17 24.285C124.952 23.1488 124.815 23.0643 123.708 23.2901C123.572 23.3179 123.435 23.3408 123.309 23.3638C123.764 21.6951 124.333 20.094 124.616 18.4423C124.98 16.31 125.228 14.1426 125.319 11.9813C125.391 10.2728 124.899 8.78404 124.009 7.4933C124.009 7.49209 124.01 7.49209 124.011 7.49209C124.211 7.12624 124.634 7.49209 124.634 7.49209C124.085 6.69881 123.038 6.31122 123.038 6.31122C123.343 5.84274 124.146 5.87293 124.146 5.87293C123.536 5.23178 121.612 5.06275 121.612 5.06275C122.737 4.22238 122.128 1.30886 122.128 1.30886C121.43 2.76139 118.969 2.94491 118.969 2.94491C121.086 2.08764 120.44 0 120.44 0C119.748 0.763095 118.684 1.11687 116.789 1.20018C115.385 1.26176 113.202 1.76889 113.202 1.76889C113.452 0.881426 115.482 0.591643 115.482 0.591643C113.425 0.399662 108.214 1.6252 106.282 2.10576C106.087 2.15164 105.892 2.20114 105.698 2.25306C105.6 2.27841 105.545 2.29291 105.545 2.29291H105.547C103.919 2.7457 102.376 3.42186 101 4.32984C98.9264 5.69907 97.4379 7.53074 96.7033 9.94318C96.6297 10.1835 96.4319 10.4877 96.2196 10.5674C94.5273 11.1965 93.9302 12.5778 93.7143 14.1921C93.3838 16.6529 93.8518 19.0448 94.4513 21.4174C94.6419 22.172 94.8385 22.9242 95.0448 23.7236C92.9616 23.4096 92.9869 23.4145 92.6371 25.4574C92.379 26.9667 92.2861 28.3866 93.2595 29.751C93.66 30.3125 93.8385 31.1215 93.8771 31.8314C93.929 32.7588 94.2607 33.2719 95.2607 33.3383C95.2896 36.1601 95.3174 38.942 95.3463 41.7251C95.3511 42.1658 95.3861 42.6089 95.3536 43.046C95.1002 46.3677 96.7069 48.6111 99.4173 50.2809C102.285 52.0474 105.13 53.8501 107.945 55.6963C108.832 56.277 109.624 56.2626 110.444 55.7204C113.57 53.6497 116.733 51.6272 119.787 49.4539C121.945 47.918 123.005 45.7519 122.912 43.0122C122.8 39.699 122.827 36.3822 122.792 33.022C123.836 33.0304 124.137 32.4859 124.275 31.5453C124.421 30.5552 124.918 29.6231 125.193 28.6463C125.379 27.9894 125.55 27.2987 125.539 26.6262C125.525 25.845 125.32 25.0626 125.17 24.285ZM94.7975 30.5467C94.1545 28.971 93.3898 27.4147 93.9978 25.6337C94.0846 25.6192 94.1726 25.6047 94.2595 25.5902C94.5381 27.2251 94.8168 28.8612 95.0942 30.4972C94.9953 30.5129 94.8964 30.5298 94.7975 30.5467ZM95.45 20.2099C94.5007 17.7347 95.2305 15.4708 96.3547 13.2576C95.6056 15.5167 95.2293 17.8217 95.45 20.2099ZM121.725 10.0422C121.138 11.1844 120.548 12.3315 119.984 13.4278C120.05 11.9149 120.671 10.7075 121.725 10.0422ZM117.922 13.3952C118.056 12.323 117.59 11.2231 118.286 10.1533C119.101 8.90237 119.986 8.12599 120.875 8.16946C119.487 9.60871 118.393 11.2991 117.922 13.3952ZM119.476 5.35132C118.325 6.71089 117.147 8.10305 116.09 9.35154C116.552 7.61405 117.63 6.13495 119.476 5.35132ZM117.36 4.57133C115.343 6.52616 114.353 8.89634 113.618 11.6758C113.42 8.90841 115.308 5.12795 117.36 4.57133ZM113.662 4.11129C113.133 4.67999 112.585 5.27163 112.035 5.86448C112.094 5.91761 112.153 5.97074 112.212 6.02266C112.449 5.85845 112.687 5.69544 112.755 5.64835C112.271 6.67466 111.588 7.77705 111.23 8.97724C110.864 10.2028 110.817 11.5237 110.63 12.8036L110.538 12.8241C110.48 11.8702 110.421 10.9164 110.352 9.80432C110.183 10.2269 110.078 10.4853 109.916 10.891C109.748 7.56937 111.462 4.57495 113.662 4.11129ZM108.869 3.54381C106.385 6.0287 104.923 8.98448 104.81 12.5718C104.731 12.5536 104.651 12.5355 104.572 12.5174C104.561 11.4995 104.551 10.4817 104.54 9.46383C104.111 9.8973 103.841 10.3501 103.671 10.8379C103.504 11.3184 103.441 11.834 103.333 12.3339C103.278 8.2081 105.66 5.61213 108.869 3.54381ZM109.395 6.44526C108.498 8.47253 108.375 10.6278 108.345 12.7975C107.646 10.5083 108.042 8.39767 109.395 6.44526ZM104.512 4.57978C103.383 5.38875 101.934 6.19532 100.789 7.3134C99.6562 8.4194 98.8299 9.84176 98.0073 10.9405C98.5935 7.67201 101.47 4.88163 104.512 4.57978ZM102.25 9.17646C101.884 10.134 101.509 11.1192 101.118 12.1407C100.849 11.0733 101.268 10.0217 102.25 9.17646ZM100.643 8.81543C100.213 9.89246 99.7828 10.9695 99.3148 12.1419C99.2738 10.7691 99.7961 9.72825 100.643 8.81543ZM98.7443 21.7748C98.9529 21.5116 98.9529 20.9477 98.842 20.5867C98.2015 18.4954 98.0712 16.4283 99.0253 14.4046C99.4644 13.4737 100.086 13.3385 100.924 13.3517C105.762 13.4278 108.694 15.6241 109.904 15.9489C111.171 16.2894 112.062 14.4686 116.858 13.7852C118.419 13.563 118.841 14.57 119.858 15.379C120.491 15.8837 120.88 16.4198 120.564 17.3713C120.231 18.371 119.929 19.3865 119.709 20.4152C119.624 20.81 119.715 21.299 119.881 21.6782C120.124 22.2312 120.687 22.3109 120.947 22.731C121.027 22.8699 121.601 23.5738 121.659 23.7284C120.717 23.3975 118.514 22.0682 112.805 23.2623C111.349 23.5666 109.954 23.6801 108.6 23.5992C108.915 21.8774 107.78 20.1182 106.044 19.5724C106.622 20.2401 107.169 20.874 107.891 21.7084C107.451 21.5936 107.225 21.5345 107.05 21.4886C107.381 22.0573 107.714 22.8397 108.071 23.5569C107.944 23.5449 107.818 23.534 107.692 23.5171C104.335 23.0884 100.882 21.776 97.6225 23.5762C97.8987 22.9774 98.2666 22.3761 98.7443 21.7748ZM97.9373 23.8866C100.66 23.2985 103.394 23.1585 106.105 23.8697C106.88 24.0737 107.637 24.2029 108.428 24.215C108.505 24.2162 108.58 24.2222 108.658 24.221C109.669 24.2041 110.681 24.2307 111.692 24.215C111.969 24.2114 112.256 24.1582 112.521 24.0713C115.342 23.1428 118.179 23.2756 121.026 23.9167C121.401 24.0013 121.36 23.9252 121.314 24.2802C120.818 24.3466 120.783 24.4746 120.254 24.3188C119.973 24.2367 119.321 24.0991 119.014 24.0484C117.125 23.7344 115.233 23.7236 113.354 24.1293C112.827 24.2428 112.43 24.3744 112.145 24.5506C111.199 24.221 107.667 24.3623 107.418 24.7414C105.059 23.6306 102.573 23.6584 100.07 23.9711C99.6224 24.0266 99.2135 23.994 98.7708 24.145C98.4222 24.2645 98.0483 24.3067 97.6213 24.3973C97.6454 23.9783 97.4234 23.9976 97.9373 23.8866ZM119.61 25.4961C117.859 25.0553 116.071 24.6062 114.487 24.2077C115.869 24.0339 117.487 24.0158 119.09 24.3683C119.675 24.4963 119.945 24.867 119.876 25.3319C119.608 25.2485 119.347 25.1664 119.085 25.0843C119.076 25.1024 119.068 25.1206 119.06 25.1387C119.256 25.2654 119.453 25.3934 119.61 25.4961ZM107.47 25.5806C105.721 25.065 104.122 24.5929 102.417 24.0894C104.031 24.058 105.527 24.1256 106.91 24.8211C107.131 24.9322 107.243 25.2606 107.47 25.5806ZM97.1798 15.6857C96.9928 17.0404 96.8336 18.1996 96.6442 19.5724C96.2908 18.1283 96.5899 16.9873 97.1798 15.6857ZM97.1882 45.8038C96.6322 44.0796 96.7045 42.3747 97.3692 40.4766C97.3885 42.3989 97.4065 44.1037 97.4234 45.8086L97.1882 45.8038ZM96.9868 37.8746C100.16 38.5761 104.241 38.6607 107.015 37.5414C104.12 39.6664 99.2147 40.415 96.9868 37.8746ZM102.64 38.0859C104.182 37.2661 105.171 35.5721 108.119 36.2796C106.64 36.794 104.239 37.5305 102.64 38.0859ZM99.3341 41.1335C99.4982 43.4771 99.6731 46.7963 99.8431 49.2281C98.4608 48.0219 98.1158 42.5027 99.3341 41.1335ZM108.41 37.7792C107.243 40.8449 102.802 41.3375 100.421 40.211C103.473 40.6505 105.966 39.4889 108.41 37.7792ZM109.582 39.6592C111.203 39.3549 112.293 40.2943 112.293 40.2943C112.293 40.2943 111.591 40.8449 110.433 40.9511C110.038 40.9874 110.156 40.933 109.231 40.9632C108.306 40.9934 106.879 40.3498 106.879 40.3498C108.41 39.2269 109.582 39.6592 109.582 39.6592ZM102 41.8688C101.931 43.3008 101.747 45.2013 101.815 46.713C101.885 48.2525 102.203 49.7811 102.41 51.2976C100.528 49.3959 100.31 43.9069 102 41.8688ZM104.593 42.8673C103.862 46.1419 103.882 50.1699 105.937 53.0737C101.795 50.4524 102.679 44.7026 104.593 42.8673ZM106.046 51.6574C104.815 49.7714 105.391 43.913 106.903 42.1356C106.631 45.5659 106.322 48.1921 106.046 51.6574ZM108.024 54.187C105.976 49.827 107.152 46.6937 108.727 42.5341C107.989 46.7408 108 49.938 108.024 54.187ZM109.822 54.4913C108.552 49.9163 109.214 46.4981 110.587 41.9557C110.335 46.5609 110.07 50.0008 109.822 54.4913ZM111.181 54.001C111.996 49.8463 112.211 46.096 111.762 41.9569C113.439 45.8932 113.085 51.9025 111.181 54.001ZM113.392 52.6692C115.207 48.6594 114.225 45.6601 113.749 42.2443C115.907 44.8391 115.85 50.2496 113.392 52.6692ZM116.126 50.7072C116.318 49.344 116.64 47.8854 116.695 46.4172C116.753 44.9236 116.549 43.4203 116.463 41.975C118.225 44.5034 118.007 49.2172 116.126 50.7072ZM110.76 37.9362C113.284 39.4962 115.721 40.5346 118.689 39.9937C115.6 41.9751 112.441 40.1675 110.76 37.9362ZM113.88 37.0862C113.092 36.829 112.18 36.4595 111.395 36.2555C114.305 35.4368 114.802 37.1659 116.397 37.7841C116.416 37.7454 116.406 37.7647 116.397 37.7841C116.389 37.8034 116.379 37.8227 116.397 37.7841C115.746 37.7792 114.699 37.353 113.88 37.0862ZM118.762 48.989C118.876 46.6611 118.998 44.216 119.114 41.8688C120.338 43.826 120.133 47.7381 118.762 48.989ZM121.488 45.805C121.191 46.9291 120.971 47.2817 120.882 47.2877C120.868 45.9016 121.063 42.8046 121.049 41.323C121.736 42.7563 121.958 44.3851 121.488 45.805ZM111.872 37.4387C114.769 38.6003 118.666 38.3057 121.801 37.5414C119.572 40.1699 114.279 39.402 111.872 37.4387ZM115.593 36.34C117.539 36.8833 121.801 36.573 121.801 36.573C117.186 38.8092 115.593 36.34 115.593 36.34ZM121.909 27.6984C121.836 28.9614 121.507 30.042 121.401 30.4984C121.037 32.0657 120.338 33.6619 118.844 34.4395C117.485 35.1458 115.283 35.4972 114.047 34.4504C113.437 33.9336 113.032 33.2176 112.704 32.4883C112.258 31.4946 111.905 30.4453 111.621 29.3949C111.505 28.9674 111.405 28.534 111.277 28.1089C111.252 28.0244 111.064 27.5982 111.064 27.6163C111.094 29.6424 111.468 31.7373 111.606 33.7464C111.624 34.0012 111.623 34.4383 111.501 34.495C110.577 34.9249 107.322 35.1543 106.458 34.0712C106.172 33.7126 106.345 32.8759 106.345 32.8759C106.155 32.9399 105.97 35.0263 105.894 35.5358C103.763 35.4187 102.99 38.3588 97.4234 37.2443C102.751 36.8592 100.901 35.624 100.352 34.5602C99.8829 33.6498 99.3015 32.7986 98.778 31.916C97.7805 30.2376 97.1062 28.5605 97.0073 26.8798C96.8445 26.2386 97.111 25.5299 97.532 25.0457C97.5344 25.0421 97.5392 25.0421 97.5416 25.0385C97.5356 25.036 97.5308 25.0324 97.5248 25.03C97.5598 24.9962 97.5959 24.9612 97.6309 24.9274H98.5308C98.5971 25.5468 98.649 26.1939 98.7406 26.8363C99.0663 29.1087 99.7008 29.7812 101.952 30.2437C102.316 30.3185 102.69 30.3427 103.059 30.391C104.873 30.6288 106.376 29.7341 107.143 28.2031C107.672 27.1478 107.638 26.0189 107.577 24.7776C108.298 24.7776 109.003 24.803 109.705 24.7704C110.252 24.745 111.199 24.8609 111.908 24.7402C111.507 25.1362 111.486 25.7267 111.732 26.7132C111.884 27.3265 112.104 27.9411 112.405 28.4953C113.236 30.0227 114.546 30.6735 116.27 30.3717C116.929 30.2557 117.582 30.0698 118.221 29.8658C119.14 29.5711 119.719 28.9203 119.914 27.9797C120.121 26.9764 120.268 25.9609 120.453 24.8899H121.272C121.278 24.9334 121.431 25.0324 121.484 25.0831C121.745 25.3319 121.903 25.6579 121.953 26.0128C122 26.3425 121.98 26.6709 121.977 27.0029C121.984 27.0271 121.993 27.0512 121.994 27.0778C122.002 27.2903 121.961 27.4944 121.909 27.6984ZM124.631 27.8481C123.806 30.8365 124.162 26.3521 124.079 25.4936C124.04 25.1302 123.97 24.8332 123.505 24.9515C123.64 24.7402 123.921 24.646 124.167 24.7656C125.044 25.4007 124.831 26.9389 124.631 27.8481Z" fill="white"/>
</svg>
