<svg width="12" height="13" viewBox="0 0 12 13" fill="none" xmlns="http://www.w3.org/2000/svg">
<path d="M10.82 8.67326L9.12669 8.47993C8.72003 8.43326 8.32003 8.57326 8.03336 8.85993L6.80669 10.0866C4.92003 9.12659 3.37336 7.58659 2.41336 5.69326L3.64669 4.45992C3.93336 4.17326 4.07336 3.77326 4.02669 3.36659L3.83336 1.68659C3.75336 1.01326 3.18669 0.506592 2.50669 0.506592H1.35336C0.600027 0.506592 -0.0266396 1.13326 0.0200271 1.88659C0.37336 7.57993 4.92669 12.1266 10.6134 12.4799C11.3667 12.5266 11.9934 11.8999 11.9934 11.1466V9.99326C12 9.31993 11.4934 8.75326 10.82 8.67326Z" fill="#FAAF4C"/>
</svg>
